<?xml version="1.0" standalone="no"?>
<!DOCTYPE svg PUBLIC "-//W3C//DTD SVG 1.1//EN" "http://www.w3.org/Graphics/SVG/1.1/DTD/svg11.dtd" >
<svg xmlns="http://www.w3.org/2000/svg">
<metadata></metadata>
<defs>
<font id="credit_riverregular" horiz-adv-x="985" >
<font-face units-per-em="2048" ascent="1585" descent="-463" />
<missing-glyph horiz-adv-x="509" />
<glyph unicode="&#x28;C&#x29;" horiz-adv-x="1677" d="M78 791q0 170 60.5 318t164 259t240.5 174.5t293 63.5q160 0 299 -63.5t242.5 -174.5t162.5 -259t59 -318q0 -166 -59 -313.5t-162.5 -258t-243 -175t-298.5 -64.5q-156 0 -293 64.5t-240.5 175t-164 258t-60.5 313.5zM170 788q0 -150 52 -280.5t142.5 -228t214 -153.5 t265.5 -56q139 0 261 56t213 153.5t143 228.5t52 280q0 150 -52 282t-143 230.5t-213 155.5t-261 57q-141 0 -265 -57t-214.5 -155.5t-142.5 -230.5t-52 -282zM516 539v495q0 68 25.5 120t73 88t108.5 53.5t133 17.5h211l-14 -211h-52q-12 133 -45 133h-100 q-35 0 -67.5 -20.5t-56 -51t-39 -68.5t-15.5 -75v-432q0 -35 14.5 -73t41 -70.5t62 -54t76.5 -21.5q29 0 51.5 3t44 9t41 18.5t44.5 30.5l20 -51q-20 -20 -43.5 -36.5t-52.5 -29t-67 -18.5t-89 -6q-61 0 -116.5 18.5t-97.5 52t-66.5 78.5t-24.5 101z" />
<glyph unicode="&#x28;R&#x29;" horiz-adv-x="1677" d="M78 791q0 170 60.5 318t164 259t240.5 174.5t293 63.5q160 0 299 -63.5t242.5 -174.5t162.5 -259t59 -318q0 -166 -59 -313.5t-162.5 -258t-243 -175t-298.5 -64.5q-156 0 -293 64.5t-240.5 175t-164 258t-60.5 313.5zM170 788q0 -150 52 -280.5t142.5 -228t214 -153.5 t265.5 -56q139 0 261 56t213 153.5t143 228.5t52 280q0 150 -52 282t-143 230.5t-213 155.5t-261 57q-141 0 -265 -57t-214.5 -155.5t-142.5 -230.5t-52 -282zM483 301v49q86 14 86 39v813q0 33 -86 47v64h326q80 0 142.5 -14.5t106.5 -46t67.5 -85t23.5 -131.5 q0 -84 -36 -138t-112 -91q37 -18 66 -36.5t47.5 -43.5t28.5 -56.5t10 -74.5v-180q0 -31 14.5 -51.5t44.5 -20.5q6 0 10.5 1t10.5 1v-45q-20 -6 -44 -9t-50 -3q-29 0 -56.5 7t-47 23.5t-32 43t-12.5 67.5v145q0 41 -12 77t-34.5 60.5t-55.5 39t-74 14.5h-82v-377 q0 -25 84 -41v-47h-334zM733 846h82q82 0 126 49t44 143q0 41 -12 77t-33.5 62.5t-54.5 42t-76 15.5q-76 0 -76 -8v-381z" />
<glyph horiz-adv-x="2048" />
<glyph horiz-adv-x="2048" />
<glyph unicode="&#xd;" horiz-adv-x="509" />
<glyph horiz-adv-x="509" />
<glyph unicode=" "  horiz-adv-x="509" />
<glyph unicode="&#x09;" horiz-adv-x="509" />
<glyph unicode="&#xa0;" horiz-adv-x="509" />
<glyph unicode="!" horiz-adv-x="491" d="M104 1374v133q0 59 47.5 94t108.5 35q63 0 103 -34.5t40 -94.5v-133q0 -53 -3 -118.5t-14 -176t-32.5 -281.5t-58.5 -433h-100q-31 301 -49.5 485t-27.5 289.5t-11.5 154.5t-2.5 80zM111 143q0 61 36.5 112.5t98.5 51.5q61 0 98 -51.5t37 -112.5q0 -63 -37 -113t-98 -50 t-98 50t-37 113z" />
<glyph unicode="&#x22;" horiz-adv-x="731" d="M72 1440q0 66 37.5 116t97.5 50q66 0 100.5 -50t34.5 -116q0 -25 -10 -81t-23.5 -119.5t-24 -123t-10.5 -92.5h-139q0 78 -51 319q-12 55 -12 97zM389 1440q0 66 37 116t98 50q59 0 97 -50t38 -116q0 -25 -10 -81t-23.5 -119.5t-23.5 -123t-10 -92.5h-141q0 74 -50 319 q-12 55 -12 97z" />
<glyph unicode="#" horiz-adv-x="1191" d="M68 397v181h204l74 436h-190v178h225l61 391h162l-61 -391h268l68 391h157l-65 -391h164v-178h-195l-78 -436h185v-181h-211l-74 -397h-158l68 397h-269l-71 -397h-156l68 397h-176zM432 573h270l82 443h-274z" />
<glyph unicode="$" horiz-adv-x="972" d="M41 1106q0 162 100.5 256t304.5 113v106h103v-102h272l-26 -287h-76q-18 180 -66 180h-104v-522q53 -12 107.5 -28.5t111.5 -51.5q72 -43 112 -109.5t40 -152.5q0 -172 -92.5 -275.5t-278.5 -132.5v-100h-103v90h-45q-43 0 -93 9.5t-98 25.5t-87 37.5t-60 46.5l27 67 q39 -20 75 -35.5t72.5 -24.5t76.5 -13t87 -4h22.5t22.5 2v540q-66 18 -136 36t-136 63q-68 47 -100.5 107.5t-32.5 158.5zM276 1114q0 -70 23.5 -123t89.5 -88q29 -16 57 -24v477q-80 -27 -125 -91.5t-45 -150.5zM549 236q59 35 94 97t35 148q0 74 -22.5 115t-63.5 78 q-10 8 -21.5 15t-21.5 13v-466z" />
<glyph unicode="%" horiz-adv-x="1601" d="M67 916v465q0 104 78 159.5t211 55.5q135 0 213 -55.5t78 -159.5v-465q0 -102 -78 -158.5t-213 -56.5q-133 0 -211 55t-78 160zM131 0l1174 1583h161l-1157 -1583h-178zM227 959q0 -72 35 -119t94 -47t95 47t36 119v381q0 72 -35.5 119t-95.5 47q-57 0 -93 -47.5 t-36 -118.5v-381zM954 203v465q0 104 78 159.5t211 55.5q135 0 213 -55.5t78 -159.5v-465q0 -102 -78 -158.5t-213 -56.5q-133 0 -211 55t-78 160zM1114 246q0 -72 35 -119t94 -47t95 47t36 119v381q0 72 -35.5 119t-95.5 47q-57 0 -93 -47.5t-36 -118.5v-381z" />
<glyph unicode="&#x26;" horiz-adv-x="1212" d="M47 1583h850l-27 -330h-73q-25 207 -70 207h-317l256 -606h335v-125h-280l147 -358q41 -98 78 -167t76 -112t82 -64.5t96 -29.5v-98q-236 0 -360 100h-166q-113 0 -210 27.5t-170 77t-114 119t-41 155.5v475h238zM393 457q0 -63 21.5 -124t59.5 -107t89 -73.5t111 -27.5 h59q-41 57 -83 129t-83 164l-135 311h-39v-272z" />
<glyph unicode="'" horiz-adv-x="395" d="M59 1440q0 66 38 116t98 50q63 0 99 -50t36 -116q0 -25 -10.5 -81t-23.5 -119.5t-23.5 -123t-10.5 -92.5h-139q0 78 -51 319q-12 55 -13 97z" />
<glyph unicode="(" horiz-adv-x="729" d="M178 51v1477q0 88 37 157.5t105.5 118.5t165 76t212.5 27v-97q-68 -10 -125 -42.5t-99 -81t-65.5 -108.5t-23.5 -128v-1323q0 -68 23.5 -128t65.5 -108.5t99.5 -80t124.5 -43.5v-97q-121 0 -217 25.5t-163.5 75t-103.5 120t-36 160.5z" />
<glyph unicode=")" horiz-adv-x="729" d="M31 -233q68 12 125 43.5t99 80t65.5 108.5t23.5 128v1323q0 68 -23.5 128t-65.5 108.5t-99.5 81t-124.5 42.5v97q117 0 213 -27t164.5 -76t106.5 -118.5t38 -157.5v-1477q0 -90 -37 -160.5t-104.5 -120t-164.5 -75t-216 -25.5v97z" />
<glyph unicode="*" horiz-adv-x="657" d="M61 1389q0 35 18.5 63.5t53.5 28.5q18 0 39 -19.5t43.5 -51.5t45 -73t44.5 -84q-2 12 -10 46t-17.5 73t-16.5 78t-7 61q0 35 19.5 65t54.5 30q33 0 51 -30t18 -65q0 -25 -8 -62.5t-18.5 -76.5t-19.5 -69.5t-9 -42.5q23 43 45.5 82.5t44 70.5t41 49.5t35.5 18.5 q35 0 54.5 -28.5t19.5 -63.5t-21.5 -64t-68.5 -49l-144 -66l144 -61q41 -18 63.5 -50t22.5 -63q0 -35 -20.5 -62.5t-51.5 -27.5q-37 0 -92 86l-70 125q0 -8 8 -37.5t17.5 -66.5t16.5 -75t7 -60q0 -33 -19.5 -62t-51.5 -29q-35 0 -53.5 29t-18.5 62q0 25 8 62.5t18.5 75.5 t19.5 68.5t9 40.5q-47 -90 -90 -154.5t-80 -64.5q-31 0 -50 27.5t-19 62.5q0 72 86 113l143 61l-145 66q-47 20 -68 50t-21 63z" />
<glyph unicode="+" d="M55 688v154h361v360h155v-360h359v-154h-359v-362h-155v362h-361z" />
<glyph unicode="," horiz-adv-x="440" d="M86 143q0 61 37 112.5t98 51.5q66 0 102.5 -57t36.5 -131q0 -43 -15 -91t-42 -94.5t-60.5 -85t-70.5 -63.5l-61 45q90 57 90 133q-115 37 -115 180z" />
<glyph unicode="-" horiz-adv-x="411" d="M37 709v176h340v-176h-340z" />
<glyph unicode="." horiz-adv-x="428" d="M88 143q0 61 36 112.5t97 51.5q66 0 101.5 -51.5t35.5 -112.5q0 -63 -35.5 -113t-101.5 -50q-61 0 -97 50t-36 113z" />
<glyph unicode="/" horiz-adv-x="765" d="M41 0l518 1583h162l-502 -1583h-178z" />
<glyph unicode="0" horiz-adv-x="1185" d="M68 358v869q0 90 36.5 160.5t104 118.5t163 74t214.5 26q240 0 380 -99.5t140 -279.5v-869q0 -180 -140.5 -279t-379.5 -99q-119 0 -214.5 25.5t-163 73.5t-104 118.5t-36.5 160.5zM322 436q0 -147 70.5 -239.5t193.5 -92.5q61 0 110 25t84 69t53.5 104t18.5 134v713 q0 74 -19.5 135.5t-54.5 104.5t-84 67.5t-108 24.5t-107.5 -24.5t-83.5 -67.5t-54 -104.5t-19 -135.5v-713z" />
<glyph unicode="1" horiz-adv-x="608" d="M16 1296v101q41 0 78 14t65.5 39t46 58.5t17.5 74.5h254v-1444q0 -39 131 -39v-100h-520v102q135 0 135 37v1229q-51 -72 -207 -72z" />
<glyph unicode="2" horiz-adv-x="1001" d="M61 0v438q0 88 29 164t79 131t118.5 87t148.5 34q70 2 124 28.5t89 70.5t53.5 102.5t18.5 122.5q0 63 -19.5 118.5t-54.5 94.5t-86 61.5t-115 22.5q-45 0 -76.5 -3.5t-63.5 -14.5t-67.5 -32.5t-91.5 -60.5l-49 86q33 35 71 63.5t84 49t104.5 32t134.5 11.5q102 0 189 -31 t149.5 -83t98.5 -122t36 -149v-82q0 -84 -27 -156t-75 -126t-117.5 -88t-155.5 -40q-72 -6 -124 -31.5t-86 -68.5t-51.5 -100.5t-17.5 -122.5v-281h486q45 0 69 205h78l25 -330h-908z" />
<glyph unicode="3" horiz-adv-x="1021" d="M37 729l565 731h-356q-45 0 -70 -207h-74l-24 330h911l-563 -729h479v-475q0 -86 -45 -155.5t-120.5 -120t-178 -77t-215.5 -26.5h-268l24 330h74q25 -205 70 -205h100q57 0 112.5 29.5t98.5 77t68.5 106.5t25.5 119v272h-614z" />
<glyph unicode="4" horiz-adv-x="944" d="M37 330l446 1253h254v-1126h129v-127h-129v-191q0 -41 129 -65v-74h-516v78q133 20 133 61v191h-446zM193 457h290v807z" />
<glyph unicode="5" horiz-adv-x="948" d="M57 135l49 58q68 -47 128.5 -67t144.5 -20q66 0 119 24t90 66t57.5 97t20.5 119q0 70 -22.5 129t-63.5 103t-98.5 68.5t-127.5 24.5q-131 0 -297 -80l31 926h786l-24 -330h-78q-20 207 -70 207h-374l-27 -629q104 31 207 31q193 0 300 -111.5t107 -304.5 q0 -113 -43 -199.5t-111.5 -146t-156.5 -90t-176 -30.5q-115 0 -216 45t-155 110z" />
<glyph unicode="6" horiz-adv-x="1009" d="M47 391v737q0 113 41 199t111.5 142.5t168 85t212.5 28.5h237l-26 -330h-74q-20 207 -70 207h-67q-61 0 -112.5 -25.5t-88.5 -69.5t-57.5 -105.5t-20.5 -133.5v-381q51 51 124 81t169 30q82 0 152.5 -26.5t122 -81t80 -134.5t28.5 -186q0 -231 -119 -339.5t-336 -108.5 q-236 0 -355.5 106.5t-119.5 304.5zM301 406q0 -61 15.5 -115.5t43 -95.5t68.5 -66t94 -25q109 0 158 69t49 233q0 63 -14.5 120.5t-42 101.5t-66.5 70.5t-90 26.5q-111 0 -215 -107v-212z" />
<glyph unicode="7" horiz-adv-x="925" d="M41 1583h862l-541 -1583h-241l516 1458h-428q-45 0 -70 -207h-73z" />
<glyph unicode="8" horiz-adv-x="1126" d="M68 412q0 166 55 261t166 142q-78 45 -133.5 129t-55.5 236q0 211 122 317.5t364 106.5t364.5 -103.5t122.5 -296.5q0 -86 -12 -147.5t-36 -106.5t-59.5 -77.5t-80.5 -57.5q111 -47 165 -142t54 -261q0 -98 -31 -177t-93 -136.5t-160.5 -88t-233.5 -30.5t-233.5 30.5 t-161 88t-93 136t-30.5 177.5zM319 412q0 -63 16.5 -118.5t49.5 -97.5t83 -67t118 -25t118 24t83.5 64.5t50 97t16.5 122.5q0 176 -70.5 256t-197.5 80q-123 0 -195 -80t-72 -256zM338 1174q0 -125 62.5 -207t185.5 -82t186.5 81t63.5 208q0 166 -61.5 235.5t-188.5 69.5 q-123 0 -185.5 -72t-62.5 -233z" />
<glyph unicode="9" horiz-adv-x="1056" d="M47 1147q0 223 123 341t342 118q123 0 212 -31t147.5 -87t86 -136t27.5 -176v-760q0 -102 -36 -182t-99.5 -137.5t-150.5 -87t-189 -29.5q-143 0 -234.5 41.5t-144.5 115.5l62 70q39 -49 92 -76t129 -27q70 0 128 23t101 66t66.5 105t23.5 142v400q-39 -47 -104.5 -80 t-157.5 -33q-84 0 -161 24.5t-135 77t-93 131t-35 187.5zM305 1157q0 -150 56.5 -224.5t154.5 -74.5q137 0 217 109v190q0 168 -55 246t-154 78q-117 0 -168 -80t-51 -244z" />
<glyph unicode=":" horiz-adv-x="475" d="M104 143q0 61 35 112.5t99 51.5q63 0 99 -51.5t36 -112.5q0 -63 -36 -113t-99 -50t-98.5 50t-35.5 113zM104 821q0 61 35 111.5t99 50.5q63 0 99 -50.5t36 -111.5q0 -66 -36 -116t-99 -50t-98.5 50.5t-35.5 115.5z" />
<glyph unicode=";" horiz-adv-x="475" d="M104 143q0 61 36 112.5t100 51.5q66 0 101.5 -57t35.5 -131q0 -43 -15.5 -91t-42 -94.5t-60.5 -85t-71 -63.5l-61 45q90 57 90 133q-113 37 -113 180zM104 821q0 61 35 111.5t99 50.5q63 0 99 -50.5t36 -111.5q0 -66 -36 -116t-99 -50t-98.5 50.5t-35.5 115.5z" />
<glyph unicode="&#x3c;" d="M55 688v154l875 360v-176l-672 -262l672 -260v-176z" />
<glyph unicode="=" d="M55 434v154h875v-154h-875zM55 942v154h875v-154h-875z" />
<glyph unicode="&#x3e;" d="M55 328v176l672 260l-672 262v176l875 -360v-154z" />
<glyph unicode="?" horiz-adv-x="909" d="M31 1470q150 135 391 136q102 0 187 -20.5t146.5 -62.5t95.5 -104.5t34 -148.5q0 -109 -20.5 -187.5t-58.5 -135t-94.5 -93.5t-127.5 -61q-90 -31 -145.5 -53.5t-86 -43t-41 -42t-10.5 -48.5q0 -39 14.5 -85t51.5 -105l-121 -25q-86 129 -86 230q0 88 72.5 163.5 t218.5 133.5q57 23 95 49t59.5 62t29.5 84t8 114q0 117 -78 182.5t-231 65.5q-133 0 -242 -91zM182 143q0 31 10.5 60.5t29 52.5t43 37t52.5 14q63 0 99.5 -51.5t36.5 -112.5q0 -63 -36 -113t-100 -50q-59 0 -97 50t-38 113z" />
<glyph unicode="@" horiz-adv-x="1191" d="M63 49v553q0 455 465 455q516 0 516 -434v-297q0 -193 -68.5 -291t-176.5 -98q-53 0 -84 18t-49 43q-29 -27 -64 -47.5t-78 -20.5q-51 0 -87 12.5t-58.5 40t-32.5 73.5t-10 116q0 86 10 140.5t32.5 85t59.5 43t92 18.5q29 6 44.5 11t23.5 32v30q0 88 -25.5 115t-70.5 27 q-47 0 -111 -51l-31 61q47 61 97.5 85t113.5 24q53 0 92 -19.5t64 -63.5t37 -118t12 -184v-242q0 -82 39 -82q70 0 70 158v331q0 98 -22.5 163t-66.5 101.5t-112 51t-156 14.5q-135 0 -219 -83t-84 -265v-430q0 -76 24.5 -138.5t67.5 -107.5t103.5 -69.5t134.5 -24.5h446 q47 0 111 207h55l19 -365h-631q-109 0 -200 29t-155.5 82t-100.5 132t-36 179zM496 193q0 -63 12 -86t31 -23q29 0 49 30.5t20 96.5v74l-2 80l-51 -17q-25 -8 -42 -43t-17 -112z" />
<glyph unicode="A" horiz-adv-x="1347" d="M18 0v78q127 25 140 63l477 1442h88l465 -1442q10 -39 143 -63v-78h-428v74q123 20 123 59q0 2 -37 113h-526q-33 -100 -33 -115q0 -31 121 -57v-74h-533zM504 381h440l-227 715z" />
<glyph unicode="B" horiz-adv-x="1036" d="M27 0v74q137 25 137 65v1266q0 49 -137 100v78h475q109 0 195.5 -27.5t148 -76.5t94.5 -119t33 -154q0 -158 -57.5 -246t-165.5 -135q119 -41 184 -136t65 -228q0 -213 -122.5 -337t-352.5 -124h-497zM416 137q35 -8 76 -8q57 0 105 25.5t82 67.5t52.5 96.5t18.5 111.5 q0 147 -75 231t-204 84h-55v-608zM416 868h55q129 0 196.5 75t67.5 212q0 145 -53 221t-162 76q-49 0 -104 -18v-566z" />
<glyph unicode="C" horiz-adv-x="913" d="M41 371v776q0 106 41 188t113.5 137.5t170 83t207.5 27.5h330l-22 -330h-80q-20 207 -70 207h-158q-55 0 -105 -30.5t-88 -80t-61.5 -108.5t-23.5 -115v-677q0 -53 22.5 -114t63.5 -112t97.5 -84t121.5 -33q45 0 80 4.5t67.5 14.5t64.5 29.5t69 48.5l32 -80 q-33 -33 -68.5 -59.5t-81.5 -45t-105.5 -28.5t-139.5 -10q-96 0 -182 29.5t-151.5 81.5t-104.5 124t-39 156z" />
<glyph unicode="D" horiz-adv-x="1062" d="M20 0v74q133 25 134 65v1288q0 57 -134 78v78h445q127 0 226.5 -35t167 -93t103 -135t35.5 -163v-729q0 -96 -28.5 -175t-86 -135.5t-144.5 -87t-201 -30.5h-517zM408 137q31 -6 59 -6q53 0 103.5 23.5t89 65.5t62 102.5t23.5 134.5v669q0 78 -22.5 138.5t-60 101.5 t-89 62.5t-108.5 21.5q-27 0 -57 -6v-1307z" />
<glyph unicode="E" horiz-adv-x="980" d="M-2 1583h911l-22 -330h-80q-20 207 -66 207h-360l571 -731h-544v-604h348q43 0 67 205h78l23 -330h-906v72q135 25 136 75v707h409z" />
<glyph unicode="F" horiz-adv-x="970" d="M14 1583h912l-23 -330h-74q-25 207 -71 207h-357l568 -731h-543v-590q0 -41 131 -65v-74h-520v78q135 20 135 61v715h408z" />
<glyph unicode="G" horiz-adv-x="1034" d="M57 418v739q0 104 38 183t106.5 133.5t167 82t221.5 27.5h328l-25 -330h-74q-25 207 -69 207h-160q-133 0 -206 -91t-73 -243v-669q0 -88 24.5 -150.5t69 -102.5t103.5 -59.5t129 -19.5h8v594q0 43 -131 65v74h494v-74q-137 -20 -138 -65v-574q0 -47 138 -71v-74h-418 q-256 0 -394.5 106.5t-138.5 311.5z" />
<glyph unicode="H" horiz-adv-x="1236" d="M41 0v74q135 25 135 65v1305q0 41 -135 65v74h524v-74q-135 -25 -135 -65v-586h385v586q0 41 -133 65v74h520v-74q-137 -25 -137 -65v-1307q0 -39 137 -63v-74h-520v74q133 25 133 65v594h-385v-596q0 -39 135 -63v-74h-524z" />
<glyph unicode="I" horiz-adv-x="600" d="M45 0v74q135 25 135 65v1305q0 41 -135 65v74h524v-74q-135 -25 -135 -65v-1307q0 -39 135 -63v-74h-524z" />
<glyph unicode="J" horiz-adv-x="727" d="M20 0v72q8 -2 25.5 -4t44.5 -2q113 0 177.5 101t64.5 277v1000q0 49 -127 65v74h516v-74q-135 -25 -135 -65v-1028q0 -100 -31 -181t-87 -137.5t-135 -87t-175 -30.5q-84 0 -138 20z" />
<glyph unicode="K" horiz-adv-x="1128" d="M35 0v74q135 25 135 65v1305q0 41 -129 65v74h518v-74q-135 -25 -135 -65v-602l324 628q29 55 71.5 84t104.5 29h149v-74h-61q-49 0 -80 -23.5t-55 -72.5l-246 -483l356 -791q10 -23 35 -33t57 -10h19.5t19.5 4v-100q-57 -14 -127 -14q-111 0 -178.5 31.5t-103.5 119.5 l-285 664v-664q0 -39 129 -63v-74h-518z" />
<glyph unicode="L" horiz-adv-x="958" d="M31 1509v74h520v-74q-121 -25 -121 -63v-1321h338q49 0 70 205h75l23 -330h-895v78q127 23 127 59v1307q0 41 -137 65z" />
<glyph unicode="M" horiz-adv-x="1396" d="M29 0v78q137 20 137 61v1295q0 53 -137 77v72h358l303 -1143l289 1143h381v-72q-133 -25 -133 -77v-1295q0 -39 133 -61v-78h-516v74q125 25 135 65v916l-256 -1055h-133l-277 1020v-881q0 -41 127 -65v-74h-411z" />
<glyph unicode="N" horiz-adv-x="1159" d="M23 0v78q135 20 135 61v1295q0 53 -135 77v72h270l581 -909v909h285v-72q-135 -25 -135 -77v-1514l-717 1108v-889q0 -41 129 -65v-74h-413z" />
<glyph unicode="O" horiz-adv-x="1173" d="M68 358v869q0 90 36.5 160.5t104 118.5t163 74t214.5 26q240 0 380 -99.5t140 -279.5v-869q0 -180 -140.5 -279t-379.5 -99q-119 0 -214.5 25.5t-163 73.5t-104 118.5t-36.5 160.5zM322 436q0 -147 70.5 -239.5t193.5 -92.5q61 0 110 25t84 69t53.5 104t18.5 134v713 q0 74 -19.5 135.5t-54.5 104.5t-84 67.5t-108 24.5t-107.5 -24.5t-83.5 -67.5t-54 -104.5t-19 -135.5v-713z" />
<glyph unicode="P" horiz-adv-x="1009" d="M12 0v78q135 20 135 61v1272q0 39 -135 72v100h441q254 0 394 -106t140 -299q0 -117 -40 -201t-115.5 -139.5t-184 -82t-246.5 -26.5v-590q0 -20 33 -34.5t111 -30.5v-74h-533zM401 854q334 0 334 301q0 139 -67.5 219t-190.5 80q-33 0 -76 -6v-594z" />
<glyph unicode="Q" horiz-adv-x="1175" d="M68 387v840q0 90 36.5 160.5t104 118.5t163 74t214.5 26q240 0 380 -99.5t140 -279.5v-840q0 -154 -102.5 -248t-284.5 -123q-1 -10 -1 -20q0 -57 20 -110q24 -62 67 -110t103 -76q55 -26 117 -26h9l6 -98q-41 -5 -80 -5q-69 0 -132 15q-99 25 -172.5 82.5t-116.5 144.5 t-45 199q-199 20 -312.5 115.5t-113.5 259.5zM322 457q0 -147 70.5 -239.5t193.5 -92.5q61 0 110 24.5t84 68.5t53.5 104.5t18.5 134.5v692q0 74 -19.5 135.5t-54.5 104.5t-84 67.5t-108 24.5t-107.5 -24.5t-83.5 -67.5t-54 -104.5t-19 -135.5v-692z" />
<glyph unicode="R" horiz-adv-x="1214" d="M31 0v78q137 20 137 61v1272q0 51 -137 72v100h512q123 0 221 -22.5t166.5 -72.5t105.5 -133t37 -204q0 -131 -56 -217t-175 -143q59 -29 103 -57.5t74 -67.5t45 -88.5t15 -116.5v-283q0 -47 22.5 -78.5t72.5 -31.5q8 0 15 1t17 3v-72q-33 -8 -70.5 -14t-76.5 -6 q-47 0 -89 12t-74 37.5t-50.5 67.5t-18.5 104v229q0 63 -19.5 118.5t-55 95.5t-87 62.5t-114.5 22.5h-129v-590q0 -41 131 -65v-74h-522zM422 854h129q127 0 196.5 75.5t69.5 225.5q0 63 -18.5 119.5t-53 97.5t-86 64.5t-116.5 23.5q-121 0 -121 -12v-594z" />
<glyph unicode="S" horiz-adv-x="978" d="M41 1151q0 211 128 321.5t390 110.5h283l-25 -330h-78q-20 207 -67 207h-113q-63 0 -114.5 -22.5t-87 -62.5t-55 -94t-19.5 -118q0 -82 23.5 -143.5t90.5 -99.5q45 -25 93.5 -40.5t96.5 -28.5t98 -32.5t103 -54.5q74 -49 115 -126t41 -177q0 -231 -132 -356t-400 -125 q-43 0 -95.5 11t-101.5 29.5t-89 43t-60 53.5l24 78q82 -47 152.5 -69t169.5 -22q129 0 205.5 89.5t76.5 236.5q0 86 -23.5 134t-64.5 89q-41 39 -92 58.5t-108.5 36t-116 37t-111.5 61.5q-72 53 -104.5 121.5t-32.5 183.5z" />
<glyph unicode="T" horiz-adv-x="993" d="M20 1583h955l-23 -330h-78q-25 207 -71 207h-178v-1321q0 -41 129 -65v-74h-516v78q135 20 135 61v1321h-180q-49 0 -70 -207h-78z" />
<glyph unicode="U" horiz-adv-x="1234" d="M12 1509v74h516v-74q-131 -25 -131 -65v-995q0 -74 16.5 -137.5t50.5 -109.5t87 -72t127 -26q123 0 186.5 95.5t63.5 249.5v995q0 41 -127 65v74h426v-74q-135 -25 -135 -65v-1049q0 -94 -22.5 -171t-74 -131t-131.5 -83.5t-192 -29.5q-262 0 -395.5 111.5t-133.5 303.5 v1049q0 41 -131 65z" />
<glyph unicode="V" horiz-adv-x="1333" d="M10 1509v74h531v-74q-119 -27 -119 -59q0 -4 69.5 -239.5t215.5 -706.5l311 946q0 37 -121 59v74h424v-74q-129 -20 -141 -67l-469 -1442h-90l-469 1442q-16 39 -142 67z" />
<glyph unicode="W" horiz-adv-x="1771" d="M16 1509v74h549v-74q-123 -27 -123 -59l213 -891l244 1024h107l243 -1024l201 891q0 33 -121 59v74h426v-74q-131 -29 -139 -67l-361 -1442h-88l-268 905l-237 -905h-93l-413 1442q-10 41 -140 67z" />
<glyph unicode="X" horiz-adv-x="1163" d="M18 1509v74h517v-74q-102 -27 -103 -47q0 -8 48 -117.5t136 -302.5l183 410q57 131 162 131h112v-74q-119 -25 -141 -67l-246 -555l328 -746q18 -45 143 -67v-74h-518v78q102 14 102 47q0 4 -52 125t-142 319l-199 -438q-59 -131 -147 -131h-125v74q117 14 141 67 l260 588l-317 713q-18 43 -142 67z" />
<glyph unicode="Y" horiz-adv-x="1232" d="M6 1509v74h516v-74q-129 -25 -129 -65v-402q0 -147 65.5 -218.5t213.5 -71.5q252 0 252 290v402q0 41 -129 65v74h426v-74q-135 -25 -136 -65v-436q0 -346 -297 -377v-492q0 -41 130 -65v-74h-519v78q135 20 136 61v492q-186 16 -290 114.5t-104 262.5v436q0 41 -135 65z " />
<glyph unicode="Z" horiz-adv-x="962" d="M35 1583h880l-634 -1458h473q45 0 69 205h76l23 -330h-885v178l567 1280h-399q-47 0 -70 -207h-78z" />
<glyph unicode="[" horiz-adv-x="729" d="M178 -330v2237h520v-105h-321v-2025h321v-107h-520z" />
<glyph unicode="\" horiz-adv-x="708" d="M14 1583h162l520 -1583h-180z" />
<glyph unicode="]" horiz-adv-x="729" d="M31 -223h321v2025h-321v105h522v-2237h-522v107z" />
<glyph unicode="^" horiz-adv-x="888" d="M6 709l361 874h153l361 -874h-176l-263 671l-260 -671h-176z" />
<glyph unicode="_" horiz-adv-x="1009" d="M-4 -285h1014v-178h-1014v178z" />
<glyph unicode="`" horiz-adv-x="700" d="M88 1268h258l285 -353h-152z" />
<glyph unicode="a" horiz-adv-x="874" d="M41 250q0 117 67.5 171t215.5 71q61 6 104 11t72.5 11t47 12t27.5 15q-12 98 -77.5 144t-145.5 46h-92q-45 0 -70 -119h-73l-25 244h260q211 0 322.5 -86t111.5 -293v-307q0 -41 16.5 -54.5t41.5 -13.5q10 0 16 2v-108q-47 -16 -98 -16q-63 0 -97 23.5t-44 70.5 q-41 -49 -99.5 -71.5t-161.5 -22.5q-168 0 -243.5 66.5t-75.5 203.5zM266 217q0 -57 28 -89t81 -32q98 0 155.5 49.5t57.5 153.5v121q-18 -10 -56 -15.5t-73 -9.5q-115 -12 -154 -53t-39 -125z" />
<glyph unicode="b" horiz-adv-x="917" d="M25 0v102q131 20 131 97v1245q0 41 -131 65v74h325v-727q102 23 185 23q178 0 266 -113t88 -324q0 -240 -84 -351t-250 -111q-86 0 -149.5 22.5t-100.5 54.5v-57h-280zM350 156q27 -16 55.5 -28.5t63.5 -12.5q94 0 145.5 75.5t51.5 239.5q0 315 -199 315q-25 0 -53.5 -5 t-63.5 -13v-571z" />
<glyph unicode="c" horiz-adv-x="716" d="M35 418q0 227 113.5 332.5t326.5 105.5h223l-24 -330h-78q-20 205 -70 205h-51q-49 0 -90 -23.5t-69.5 -64.5t-44 -96t-15.5 -119q0 -170 59.5 -246t200.5 -76q29 0 67 5.5t83 15.5l8 -78q-57 -41 -130 -55t-136 -14q-176 0 -274.5 119.5t-98.5 318.5z" />
<glyph unicode="d" horiz-adv-x="919" d="M25 442q0 211 88 324t266 113q82 0 184 -23v588q0 41 -131 65v74h326v-1384q0 -76 131 -97v-102h-301v57q-33 -33 -92.5 -55t-135.5 -22q-168 0 -251.5 111t-83.5 351zM248 430q0 -164 51 -239.5t145 -75.5q35 0 64 12t55 29v571q-35 8 -63.5 13t-53.5 5 q-198 0 -198 -315z" />
<glyph unicode="e" horiz-adv-x="894" d="M31 453q0 201 111.5 313.5t314.5 112.5q92 0 167.5 -30t130 -83t84 -130t29.5 -169h-612v-16q0 -164 76 -248t190 -84q61 0 112.5 31.5t92.5 89.5l70 -50q-16 -41 -45 -78.5t-71 -67.5t-96.5 -47t-121.5 -17q-100 0 -180 33.5t-136.5 96t-86 149.5t-29.5 194zM270 596 h355q-16 78 -62.5 118t-116.5 40q-63 0 -108 -40t-68 -118z" />
<glyph unicode="f" horiz-adv-x="577" d="M20 0v78q135 20 136 61v592q0 23 -136 49v76h136v389q0 78 23.5 144.5t71.5 114.5t117.5 75t161.5 27q45 0 99 -7v-98q-16 2 -28.5 2h-25.5q-63 0 -106 -20.5t-69.5 -58.5t-38 -90t-11.5 -115v-363h127v-76q-127 -29 -127 -49v-592q0 -41 127 -65v-74h-457z" />
<glyph unicode="g" horiz-adv-x="915" d="M43 520q0 98 30.5 166t84 111t125 62.5t153.5 19.5q66 0 123 -11.5t109 -31.5q31 27 42 65.5t20 73.5t27.5 60.5t61.5 25.5q86 0 86 -98q0 -49 -35.5 -99.5t-101.5 -97.5q47 -37 70.5 -95.5t23.5 -150.5t-47 -166.5t-133 -105.5q39 -12 76 -32.5t65.5 -51.5t45 -74 t16.5 -100q0 -88 -34 -159t-107.5 -121t-191.5 -77.5t-286 -27.5h-90l23 334h77q25 -207 68 -207h53q131 0 204 67.5t73 192.5q0 111 -59.5 154.5t-159.5 43.5q-197 0 -304.5 85t-107.5 245zM248 514q0 -111 55 -163t152 -52q92 0 144 52t52 163q0 113 -56 176.5t-159 63.5 q-86 0 -137 -63.5t-51 -176.5z" />
<glyph unicode="h" horiz-adv-x="1077" d="M20 0v78q135 20 136 61v1305q0 41 -131 65v74h321v-827q35 57 95.5 90t174.5 33q160 0 240 -82t80 -260v-398q0 -41 129 -65v-74h-459v78q135 20 135 61v375q0 129 -45 180t-145 51q-47 0 -84 -19t-64.5 -54t-42 -81t-14.5 -97v-355q0 -41 131 -65v-74h-457z" />
<glyph unicode="i" horiz-adv-x="495" d="M20 0v78q135 20 136 61v578q0 41 -131 65v74h317v-717q0 -41 127 -65v-74h-449zM113 1192q0 66 35.5 116t99.5 50q61 0 98 -50t37 -116q0 -63 -37 -113.5t-98 -50.5q-63 0 -99 50t-36 114z" />
<glyph unicode="j" horiz-adv-x="466" d="M-111 -283q10 -2 18.5 -2h18.5q123 0 186.5 86t63.5 228v688q0 41 -127 65v74h322v-833q0 -82 -23.5 -153t-71 -123t-119 -82t-167.5 -30q-23 0 -47.5 2.5t-53.5 8.5v71zM133 1192q0 66 37 116t98 50q59 0 97 -50t38 -116q0 -63 -37.5 -113.5t-97.5 -50.5q-61 0 -98 50 t-37 114z" />
<glyph unicode="k" horiz-adv-x="1015" d="M23 0v78q135 20 135 61v1305q0 41 -129 65v74h321v-1137q242 281 242 287q0 31 -115 49v74h422v-74q-104 -23 -143 -69l-199 -232l291 -336q29 -33 62.5 -51t78.5 -20v-74h-141q-133 0 -203 78l-295 332v-271q0 -39 127 -61v-78h-454z" />
<glyph unicode="l" horiz-adv-x="497" d="M18 0v78q135 20 136 61v1305q0 41 -131 65v74h323v-1444q0 -41 127 -65v-74h-455z" />
<glyph unicode="m" horiz-adv-x="1548" d="M20 0v78q135 20 136 61v578q0 41 -131 65v74h303v-108q16 29 37.5 52t51 40.5t70.5 28t97 10.5q104 0 167.5 -36t92.5 -112q20 35 43.5 62.5t54.5 46t72 29t96 10.5q160 0 225.5 -82t65.5 -260v-398q0 -41 129 -65v-74h-430v78q68 10 91 25.5t23 35.5v375 q0 127 -34.5 179t-135.5 52q-92 0 -131 -73.5t-39 -177.5v-355q0 -41 127 -65v-74h-428v78q68 10 91.5 25.5t23.5 35.5v375q0 127 -35 179t-135 52q-92 0 -132 -73.5t-40 -177.5v-355q0 -20 22.5 -36.5t88.5 -28.5v-74h-437z" />
<glyph unicode="n" horiz-adv-x="1087" d="M20 0v78q135 20 136 61v578q0 41 -131 65v74h303v-108q35 57 104.5 94t183.5 37q160 0 240 -82t80 -260v-398q0 -41 129 -65v-74h-457v78q135 20 135 61v375q0 129 -46 180t-146 51q-47 0 -84 -19t-64.5 -54t-42 -81t-14.5 -97v-355q0 -41 131 -65v-74h-457z" />
<glyph unicode="o" horiz-adv-x="903" d="M37 428q0 451 401 451q213 0 321.5 -112t108.5 -339q0 -223 -103 -335.5t-308 -112.5q-209 0 -314.5 112.5t-105.5 335.5zM256 428q0 -164 54.5 -247t146.5 -83t142 83t50 247q0 166 -58.5 250t-152.5 84q-88 0 -135 -84t-47 -250z" />
<glyph unicode="p" horiz-adv-x="956" d="M18 -322q131 25 132 66v913q0 74 -132 99v100h326v-59q37 31 90 56.5t133 25.5q76 0 140.5 -28t112.5 -85t75 -145.5t27 -206.5q0 -104 -29 -185.5t-80 -136.5t-124 -83.5t-161 -28.5q-90 0 -184 20v-256q0 -41 131 -66v-73h-457v73zM344 129q72 -16 117 -16 q100 0 169.5 77.5t69.5 237.5q0 80 -19 139.5t-52 98.5t-75 57t-87 18q-72 0 -123 -36v-576z" />
<glyph unicode="q" horiz-adv-x="901" d="M37 438q0 227 101.5 334t299.5 107q213 0 321.5 -106.5t108.5 -334.5q0 -365 -278 -430q0 -51 18.5 -104.5t51 -97.5t78.5 -72.5t100 -28.5q25 0 47 8l12 -98q-37 -10 -90 -10q-90 0 -165 32.5t-129 88t-86 126t-36 144.5q-178 16 -266 126.5t-88 315.5zM258 438 q0 -164 53.5 -240.5t145.5 -76.5t141 76.5t49 240.5q0 166 -57.5 241t-151.5 75q-88 0 -134 -75t-46 -241z" />
<glyph unicode="r" horiz-adv-x="894" d="M18 0v78q135 20 136 61v578q0 41 -131 65v74h307v-139q27 72 92 117t166 45q145 0 213.5 -57.5t68.5 -157.5q0 -68 -33.5 -114t-99.5 -46q-68 0 -106.5 39t-38.5 98q0 68 45 107q-20 10 -39.5 14t-46.5 4q-90 0 -145.5 -91t-55.5 -237v-299q0 -20 39 -36.5t105 -28.5v-74 h-476z" />
<glyph unicode="s" horiz-adv-x="718" d="M25 102l36 91q43 -41 97.5 -73t120.5 -32q90 0 131 35t41 106q0 29 -16.5 53.5t-61.5 51.5q-47 29 -120 51.5t-136 67.5q-80 55 -80 165q0 111 81 174.5t220 63.5h317l-24 -330h-76q-27 205 -94 205h-76q-76 0 -107.5 -27.5t-31.5 -76.5q0 -59 61 -99q51 -29 129 -55.5 t148 -71.5q47 -29 69.5 -75t22.5 -93q0 -109 -81 -181t-245 -72q-129 0 -206.5 33.5t-118.5 88.5z" />
<glyph unicode="t" horiz-adv-x="497" d="M14 778v78h133v274q133 0 193 134v-408h131v-78q-131 -25 -131 -49v-414q0 -135 24.5 -196.5t98.5 -61.5q4 0 9 1t9 1v-71q-35 -8 -78 -8q-63 0 -111 24.5t-80 68.5t-48.5 104.5t-16.5 131.5v420q0 25 -133 49z" />
<glyph unicode="u" horiz-adv-x="1036" d="M12 782v74h471v-74q-133 -23 -133 -65v-346q0 -74 9.5 -124t31 -82t59 -45.5t93.5 -13.5q102 0 152 58.5t50 206.5v348q0 41 -131 63v74h408v-74q-68 -10 -95.5 -26.5t-27.5 -38.5v-357q0 -207 -86 -293.5t-270 -86.5q-207 0 -308.5 86t-101.5 294v359q0 23 -27.5 38 t-93.5 25z" />
<glyph unicode="v" horiz-adv-x="1042" d="M6 782v74h473v-74q-121 -18 -121 -53q0 -4 55.5 -116.5t153.5 -305.5l195 422q0 25 -119 53v74h389v-74q-59 -10 -85.5 -26.5t-37.5 -40.5l-334 -715h-81l-357 715q-10 23 -40.5 40t-90.5 27z" />
<glyph unicode="w" horiz-adv-x="1359" d="M8 782v74h453v-74q-125 -23 -125 -55l119 -393l161 522h183l176 -526l121 397q0 27 -121 55v74h377v-74q-66 -10 -91.5 -26.5t-31.5 -38.5l-248 -717h-102l-207 629l-205 -629h-100l-250 717q-8 23 -28.5 39t-80.5 26z" />
<glyph unicode="x" horiz-adv-x="976" d="M29 0v78q59 0 110 13t80 54l182 252l-223 318q-31 41 -149 67v74h481v-74q-109 -31 -109 -53l113 -166l117 162q49 72 96 101.5t94 29.5h107v-74q-59 -2 -104.5 -20.5t-65.5 -46.5l-176 -248l231 -322q16 -23 50 -40t98 -27v-78h-486v74q115 20 115 51l-123 180 l-121 -172q-47 -66 -91 -99.5t-103 -33.5h-123z" />
<glyph unicode="y" horiz-adv-x="1034" d="M10 782v74h463v-74q-123 -29 -123 -53q0 -4 2 -6l207 -422l195 428q0 35 -117 53v74h387v-74q-59 -10 -85 -26.5t-36 -40.5l-364 -776q-33 -70 -76 -131.5t-97.5 -106.5t-118 -70.5t-134.5 -25.5q-35 0 -76 10l12 98q4 -2 10.5 -4t10.5 -2q90 0 159.5 65.5t147.5 225.5 l53 113l-299 604q-8 16 -33.5 33.5t-87.5 33.5z" />
<glyph unicode="z" horiz-adv-x="843" d="M35 856h774l-510 -731h334q49 0 69 205h76l23 -330h-744v147l435 584h-289q-49 0 -70 -205h-76z" />
<glyph unicode="{" horiz-adv-x="729" d="M61 715v147q29 2 57.5 14.5t51.5 34t36 54t13 77.5v486q0 176 122 277.5t357 101.5v-97q-68 -10 -119 -42.5t-84.5 -81t-50 -108.5t-16.5 -128v-399q0 -176 -139 -263q139 -88 139 -262v-399q0 -68 16.5 -128t50 -108.5t85 -80t118.5 -43.5v-97q-236 0 -357.5 101.5 t-121.5 279.5v484q0 45 -13 77.5t-36 54t-51.5 34t-57.5 14.5z" />
<glyph unicode="|" horiz-adv-x="565" d="M195 -113v1807h174v-1807h-174z" />
<glyph unicode="}" horiz-adv-x="729" d="M31 -233q68 12 119 43.5t84.5 80t51 108.5t17.5 128v399q0 174 137 262q-137 84 -137 263v399q0 68 -17.5 128t-51 108.5t-85 81t-118.5 42.5v97q236 0 357.5 -101.5t121.5 -277.5v-486q0 -45 13.5 -77.5t36 -54t51 -34t57.5 -14.5v-147q-59 -4 -108.5 -48t-49.5 -132 v-484q0 -178 -122 -279.5t-357 -101.5v97z" />
<glyph unicode="~" horiz-adv-x="1245" d="M72 807q0 152 75.5 211t227.5 59q57 0 132 -27.5t151.5 -60.5t144 -60.5t110.5 -27.5q70 0 106 37t40 139h112q2 -29 2.5 -50t0.5 -46q0 -78 -17.5 -131t-50.5 -86t-83 -46t-114 -13q-72 0 -156.5 28.5t-165.5 63t-149.5 63.5t-107.5 29q-72 0 -104.5 -43t-32.5 -137 h-113q-4 29 -6 52t-2 46z" />
<glyph unicode="&#xa1;" horiz-adv-x="491" d="M104 -66q0 51 3.5 118t14.5 177.5t32.5 281.5t58.5 433h100q31 -301 48.5 -485.5t26.5 -290t12 -154.5t3 -80v-133q0 -59 -47 -94t-108 -35q-63 0 -103.5 35t-40.5 94v133zM127 1165q0 63 37 113.5t98 50.5t98 -50t37 -114q0 -61 -36.5 -112.5t-98.5 -51.5 q-61 0 -98 51.5t-37 112.5z" />
<glyph unicode="&#xa2;" horiz-adv-x="778" d="M68 782q0 186 78.5 291t226.5 135v375h166v-362h192l-22 -330h-78q-20 205 -70 205h-51q-49 0 -90 -23.5t-71 -64.5t-45 -97.5t-15 -119.5q0 -168 60.5 -245t201.5 -77q29 0 66.5 5t82.5 18l9 -80q-37 -27 -81 -41.5t-89 -22.5v-348h-166v346q-145 25 -225 140.5 t-80 295.5z" />
<glyph unicode="&#xa3;" horiz-adv-x="1001" d="M12 561v154h131q-29 96 -54.5 200.5t-25.5 223.5q0 111 36 196.5t98.5 146t149.5 92.5t190 32q76 0 134 -11.5t104 -32t83 -49t72 -63.5l-49 -86q-55 39 -91 60.5t-68 32.5t-63.5 14.5t-76.5 3.5q-129 0 -202 -96.5t-73 -303.5q0 -109 19.5 -194.5t44.5 -165.5h475v-154 h-434q4 -31 9 -60.5t5 -58.5q0 -72 -24.5 -148.5t-90.5 -168.5h486q45 0 69 205h78l25 -330h-916v86q94 68 130 139.5t36 153.5q0 43 -8 88t-21 94h-178z" />
<glyph unicode="&#xa5;" horiz-adv-x="1232" d="M6 1509v74h516v-74q-129 -25 -129 -65v-168q0 -147 65.5 -220t213.5 -73q252 0 252 293v168q0 41 -129 65v74h426v-74q-135 -25 -136 -65v-205q0 -342 -297 -377v-137h295v-154h-295v-141h295v-156h-295v-135q0 -41 130 -65v-74h-519v78q135 20 136 61v135h-328v156h328 v141h-328v154h328v137q-186 16 -290 115.5t-104 261.5v205q0 41 -135 65z" />
<glyph unicode="&#xa6;" horiz-adv-x="565" d="M195 -113v695h174v-695h-174zM195 1042v652h174v-652h-174z" />
<glyph unicode="&#xa7;" horiz-adv-x="1144" d="M43 776q0 117 40 205t124 141v29q0 211 128 321.5t390 110.5h283l-25 -330h-78q-20 207 -67 207h-113q-63 0 -114.5 -22.5t-87.5 -62.5t-55 -94t-19 -118q0 -82 23.5 -143.5t90.5 -99.5q45 -25 93.5 -40.5t96.5 -28.5t98 -32.5t103 -54.5q74 -49 115 -126t41 -177 q0 -260 -164 -383q-4 -227 -136 -350t-396 -123q-43 0 -95.5 11t-101.5 29.5t-89 43t-60 53.5l24 78q82 -47 152.5 -68.5t169.5 -21.5q129 0 205.5 89t76.5 236q0 86 -23.5 134.5t-64.5 89.5q-41 39 -92 58t-108.5 35.5t-116 37t-111.5 61.5q-72 53 -104.5 122t-32.5 183z M285 788q0 -82 23.5 -143t90.5 -100q45 -25 93.5 -40.5t96.5 -28.5t98.5 -32.5t103.5 -54.5q33 -20 59 -51q10 47 10 92q0 86 -23.5 134t-64.5 89q-41 39 -92 58.5t-108.5 36t-116 37t-111.5 61.5q-25 16 -47 39q-12 -43 -12 -97z" />
<glyph unicode="&#xa8;" horiz-adv-x="868" d="M88 1090q0 55 33 101t88 46q59 0 92 -46t33 -101q0 -57 -33 -103.5t-92 -46.5q-55 0 -88 46t-33 104zM555 1090q0 55 31.5 101t87.5 46q59 0 92 -46t33 -101q0 -57 -33 -103.5t-92 -46.5q-55 0 -87 46t-32 104z" />
<glyph unicode="&#xaa;" horiz-adv-x="542" d="M45 965q0 66 38 98.5t122 42.5q53 4 80.5 10t38.5 10q-8 41 -37 62.5t-64 21.5h-49q-14 0 -29 -65h-61l-14 155h153q119 0 183.5 -49t64.5 -166v-161q0 -25 14 -25h21v-80q-35 -12 -64 -12q-63 0 -82 39q-23 -20 -53.5 -29.5t-79.5 -9.5q-96 0 -139 39t-43 119zM188 946 q0 -45 48 -45q45 0 70.5 28.5t25.5 78.5v24q-43 -12 -71 -16t-44 -10.5t-22.5 -18.5t-6.5 -41z" />
<glyph unicode="&#xab;" horiz-adv-x="884" d="M31 668v188l377 254v-197l-248 -145l248 -152v-190zM473 668v188l377 254v-197l-248 -145l248 -152v-190z" />
<glyph unicode="&#xac;" d="M55 688v154h875v-727h-154v573h-721z" />
<glyph unicode="&#xad;" horiz-adv-x="411" d="M37 709v176h340v-176h-340z" />
<glyph unicode="&#xaf;" horiz-adv-x="837" d="M88 1008v122h680v-122h-680z" />
<glyph unicode="&#xb0;" horiz-adv-x="792" d="M70 1217v69q0 154 87 237t240 83q152 0 239 -83t87 -237v-69q0 -154 -89 -240t-237 -86q-154 0 -240.5 86t-86.5 240zM250 1247q0 -92 39 -153.5t108 -61.5q66 0 106 61.5t40 153.5q0 96 -40 157.5t-106 61.5q-70 0 -108.5 -61.5t-38.5 -157.5z" />
<glyph unicode="&#xb1;" d="M55 2v154h875v-154h-875zM55 688v154h361v360h155v-360h359v-154h-359v-362h-155v362h-361z" />
<glyph unicode="&#xb2;" horiz-adv-x="612" d="M55 713v248q0 98 60.5 163.5t152.5 67.5q70 2 106 50.5t36 111.5q0 66 -37 106.5t-99 40.5q-25 0 -41 -2t-33.5 -8t-38 -18t-50.5 -35l-39 63q43 41 92 68t133 27q57 0 105.5 -17.5t84 -47.5t56 -69.5t20.5 -82.5v-45q0 -94 -57 -158t-156 -72q-70 -4 -103.5 -50 t-33.5 -112v-137h248q14 0 28 109h64l12 -201h-510z" />
<glyph unicode="&#xb3;" horiz-adv-x="622" d="M29 1104l305 389h-168q-14 0 -29 -108h-59l-12 198h524l-305 -391h245v-264q0 -49 -24.5 -89t-67.5 -67.5t-99 -43t-120 -15.5h-153l12 201h59q14 -109 29 -109h53q29 0 55.5 14.5t48 38t35 53t13.5 58.5v135h-342z" />
<glyph unicode="&#xb4;" horiz-adv-x="700" d="M88 915l285 353h258l-391 -353h-152z" />
<glyph unicode="&#xb6;" horiz-adv-x="1452" d="M59 1178q0 193 140.5 299t394.5 106h809v-100q-135 -33 -135 -72v-1806h-172v1847h-238q-41 -20 -41 -41v-1806h-172v1124q-274 0 -430 108.5t-156 340.5zM311 1155q0 -301 334 -301v594q-43 6 -76 6q-123 0 -190.5 -80t-67.5 -219z" />
<glyph unicode="&#xb7;" horiz-adv-x="428" d="M88 759q0 61 36 112.5t97 51.5q66 0 101.5 -51.5t35.5 -112.5q0 -63 -35.5 -113t-101.5 -50q-61 0 -97 50t-36 113z" />
<glyph unicode="&#xb8;" horiz-adv-x="380" d="M88 -186q0 47 29.5 83.5t81.5 36.5q53 0 82.5 -42t29.5 -97q0 -31 -12 -66.5t-33.5 -69.5t-49.5 -63.5t-58 -48.5l-49 35q74 43 73 99q-94 25 -94 133z" />
<glyph unicode="&#xb9;" horiz-adv-x="395" d="M29 1405v78q45 0 78.5 29.5t33.5 70.5h158v-770q0 -4 17.5 -13t52.5 -9v-78h-299v80q35 0 53 8t18 12v617q-37 -25 -112 -25z" />
<glyph unicode="&#xba;" horiz-adv-x="559" d="M43 1061q0 252 225 252q242 0 242 -252q0 -254 -231 -254q-236 0 -236 254zM184 1061q0 -82 26 -121t69 -39q90 0 90 160q0 82 -28 121t-73 39q-84 0 -84 -160z" />
<glyph unicode="&#xbb;" horiz-adv-x="884" d="M31 426v190l248 152l-248 145v197l377 -254v-188zM473 426v190l248 152l-248 145v197l377 -254v-188z" />
<glyph unicode="&#xbc;" horiz-adv-x="1470" d="M67 0l1174 1583h161l-1157 -1583h-178zM162 1405v78q45 0 78.5 29.5t33.5 70.5h158v-770q0 -4 17.5 -13t52.5 -9v-78h-299v80q35 0 53 8t18 12v617q-37 -25 -112 -25zM832 178l246 692h157v-602h70v-90h-70v-86q0 -6 17.5 -15t52.5 -16v-61h-301v63q72 12 72 29v86h-244z M951 268h125v350q-31 -86 -63 -173t-62 -177z" />
<glyph unicode="&#xbd;" horiz-adv-x="1472" d="M67 0l1174 1583h161l-1157 -1583h-178zM162 1405v78q45 0 78.5 29.5t33.5 70.5h158v-770q0 -4 17.5 -13t52.5 -9v-78h-299v80q35 0 53 8t18 12v617q-37 -25 -112 -25zM895 0v248q0 98 60.5 163.5t152.5 67.5q70 2 106 50.5t36 111.5q0 66 -37 106.5t-99 40.5 q-25 0 -41 -2t-33.5 -8t-38 -18t-50.5 -35l-39 63q43 41 92 68t133 27q57 0 105.5 -17.5t84 -47.5t56 -69.5t20.5 -82.5v-45q0 -94 -57 -158t-156 -72q-70 -4 -103.5 -50t-33.5 -112v-137h248q14 0 28 109h64l12 -201h-510z" />
<glyph unicode="&#xbe;" horiz-adv-x="1470" d="M67 0l1174 1583h161l-1157 -1583h-178zM111 1104l305 389h-168q-14 0 -29 -108h-59l-12 198h524l-305 -391h245v-264q0 -49 -24.5 -89t-67.5 -67.5t-99 -43t-120 -15.5h-153l12 201h59q14 -109 29 -109h53q29 0 55.5 14.5t48 38t35 53t13.5 58.5v135h-342zM909 178 l246 692h157v-602h70v-90h-70v-86q0 -6 17.5 -15t52.5 -16v-61h-301v63q72 12 72 29v86h-244zM1028 268h125v350q-31 -86 -63 -173t-62 -177z" />
<glyph unicode="&#xbf;" horiz-adv-x="909" d="M31 8q0 109 19.5 187.5t58 135t95 93.5t128.5 61q88 31 143 53.5t86 43t42 42t11 48.5q0 39 -14 85t-51 105l121 25q86 -129 86 -230q0 -88 -73 -163.5t-218 -133.5q-59 -23 -96 -49t-58.5 -62t-30 -84t-8.5 -114q0 -117 78 -182.5t232 -65.5q133 0 241 91l62 -87 q-152 -135 -391 -135q-102 0 -187.5 20.5t-147 62.5t-95 104.5t-33.5 148.5zM463 1135q0 63 36 113t99 50q59 0 97 -50t38 -113q0 -31 -10 -61t-28.5 -52.5t-43 -36.5t-53.5 -14q-63 0 -99 51.5t-36 112.5z" />
<glyph unicode="&#xc0;" horiz-adv-x="1347" d="M18 0v78q127 25 140 63l477 1442h88l465 -1442q10 -39 143 -63v-78h-428v74q123 20 123 59q0 2 -37 113h-526q-33 -100 -33 -115q0 -31 121 -57v-74h-533zM299 1995h258l285 -353h-152zM504 381h440l-227 715z" />
<glyph unicode="&#xc1;" horiz-adv-x="1347" d="M18 0v78q127 25 140 63l477 1442h88l465 -1442q10 -39 143 -63v-78h-428v74q123 20 123 59q0 2 -37 113h-526q-33 -100 -33 -115q0 -31 121 -57v-74h-533zM504 381h440l-227 715zM504 1642l285 353h258l-391 -353h-152z" />
<glyph unicode="&#xc2;" horiz-adv-x="1347" d="M18 0v78q127 25 140 63l477 1442h88l465 -1442q10 -39 143 -63v-78h-428v74q123 20 123 59q0 2 -37 113h-526q-33 -100 -33 -115q0 -31 121 -57v-74h-533zM303 1642l262 353h217l262 -353h-137l-237 242l-232 -242h-135zM504 381h440l-227 715z" />
<glyph unicode="&#xc3;" horiz-adv-x="1347" d="M18 0v78q127 25 140 63l477 1442h88l465 -1442q10 -39 143 -63v-78h-428v74q123 20 123 59q0 2 -37 113h-526q-33 -100 -33 -115q0 -31 121 -57v-74h-533zM278 1782q0 100 53.5 139t163.5 39q41 0 95.5 -18.5t108.5 -40t103.5 -40t79.5 -18.5q49 0 74 24.5t29 92.5h82 q2 -16 2 -31.5v-32.5q0 -104 -49.5 -143t-141.5 -39q-51 0 -111.5 18.5t-119 42t-107.5 42t-78 18.5q-51 0 -73.5 -27.5t-22.5 -91.5h-82q-6 39 -6 66zM504 381h440l-227 715z" />
<glyph unicode="&#xc4;" horiz-adv-x="1347" d="M18 0v78q127 25 140 63l477 1442h88l465 -1442q10 -39 143 -63v-78h-428v74q123 20 123 59q0 2 -37 113h-526q-33 -100 -33 -115q0 -31 121 -57v-74h-533zM317 1817q0 55 33 101t88 46q59 0 92 -46t33 -101q0 -57 -33 -103.5t-92 -46.5q-55 0 -88 46t-33 104zM504 381 h440l-227 715zM784 1817q0 55 31.5 101t87.5 46q59 0 92 -46t33 -101q0 -57 -33 -103.5t-92 -46.5q-55 0 -87 46t-32 104z" />
<glyph unicode="&#xc5;" horiz-adv-x="1347" d="M18 0v78q127 25 140 63l477 1442h88l465 -1442q10 -39 143 -63v-78h-428v74q123 20 123 59q0 2 -37 113h-526q-33 -100 -33 -115q0 -31 121 -57v-74h-533zM471 1804q0 82 51 136.5t150 54.5q100 0 152.5 -54.5t52.5 -136.5q0 -92 -57.5 -141t-147.5 -49q-88 0 -144.5 52 t-56.5 138zM504 381h440l-227 715zM598 1796q0 -72 24.5 -98.5t49.5 -26.5q31 0 54.5 26.5t23.5 98.5t-24 98.5t-54 26.5q-25 0 -49.5 -26.5t-24.5 -98.5z" />
<glyph unicode="&#xc6;" horiz-adv-x="1871" d="M12 0v78q127 25 140 63l473 1442h88l327 -1010v281h406l-561 729h913l-26 -330h-76q-25 207 -72 207h-354l565 -731h-541v-604h344q49 0 70 205h80l22 -330h-911v74q121 23 121 59l-37 113h-526q-33 -92 -33 -115q0 -31 119 -57v-74h-531zM498 381h438l-227 700z" />
<glyph unicode="&#xc7;" horiz-adv-x="913" d="M41 371v776q0 106 41 188t113.5 137.5t170 83t207.5 27.5h330l-22 -330h-80q-20 207 -70 207h-158q-55 0 -105 -30.5t-88 -80t-61.5 -108.5t-23.5 -115v-677q0 -53 22.5 -114t63.5 -112t97.5 -84t121.5 -33q45 0 80 4.5t67.5 14.5t64.5 29.5t69 48.5l32 -80 q-33 -33 -68.5 -59.5t-81.5 -45t-105.5 -28.5t-139.5 -10q-96 0 -182 29.5t-151.5 81.5t-104.5 124t-39 156zM405 -186q0 47 29.5 83.5t81.5 36.5q53 0 82.5 -42t29.5 -97q0 -31 -12 -66.5t-33.5 -69.5t-49.5 -63.5t-58 -48.5l-49 35q74 43 73 99q-94 25 -94 133z" />
<glyph unicode="&#xc8;" horiz-adv-x="980" d="M-2 1583h911l-22 -330h-80q-20 207 -66 207h-360l571 -731h-544v-604h348q43 0 67 205h78l23 -330h-906v72q135 25 136 75v707h409zM117 1995h258l285 -353h-152z" />
<glyph unicode="&#xc9;" horiz-adv-x="980" d="M-2 1583h911l-22 -330h-80q-20 207 -66 207h-360l571 -731h-544v-604h348q43 0 67 205h78l23 -330h-906v72q135 25 136 75v707h409zM321 1642l285 353h258l-391 -353h-152z" />
<glyph unicode="&#xca;" horiz-adv-x="980" d="M-2 1583h911l-22 -330h-80q-20 207 -66 207h-360l571 -731h-544v-604h348q43 0 67 205h78l23 -330h-906v72q135 25 136 75v707h409zM119 1642l262 353h217l262 -353h-137l-237 242l-232 -242h-135z" />
<glyph unicode="&#xcb;" horiz-adv-x="980" d="M-2 1583h911l-22 -330h-80q-20 207 -66 207h-360l571 -731h-544v-604h348q43 0 67 205h78l23 -330h-906v72q135 25 136 75v707h409zM135 1817q0 55 33 101t88 46q59 0 92 -46t33 -101q0 -57 -33 -103.5t-92 -46.5q-55 0 -88 46t-33 104zM602 1817q0 55 31.5 101t87.5 46 q59 0 92 -46t33 -101q0 -57 -33 -103.5t-92 -46.5q-55 0 -87 46t-32 104z" />
<glyph unicode="&#xcc;" horiz-adv-x="600" d="M-72 1995h258l285 -353h-152zM45 0v74q135 25 135 65v1305q0 41 -135 65v74h524v-74q-135 -25 -135 -65v-1307q0 -39 135 -63v-74h-524z" />
<glyph unicode="&#xcd;" horiz-adv-x="600" d="M45 0v74q135 25 135 65v1305q0 41 -135 65v74h524v-74q-135 -25 -135 -65v-1307q0 -39 135 -63v-74h-524zM131 1642l285 353h258l-391 -353h-152z" />
<glyph unicode="&#xce;" horiz-adv-x="600" d="M-68 1642l262 353h217l262 -353h-137l-237 242l-232 -242h-135zM45 0v74q135 25 135 65v1305q0 41 -135 65v74h524v-74q-135 -25 -135 -65v-1307q0 -39 135 -63v-74h-524z" />
<glyph unicode="&#xcf;" horiz-adv-x="600" d="M-53 1817q0 55 33 101t88 46q59 0 92 -46t33 -101q0 -57 -33 -103.5t-92 -46.5q-55 0 -88 46t-33 104zM45 0v74q135 25 135 65v1305q0 41 -135 65v74h524v-74q-135 -25 -135 -65v-1307q0 -39 135 -63v-74h-524zM414 1817q0 55 31.5 101t87.5 46q59 0 92 -46t33 -101 q0 -57 -33 -103.5t-92 -46.5q-55 0 -87 46t-32 104z" />
<glyph unicode="&#xd0;" horiz-adv-x="1069" d="M20 0v74q133 25 134 65v633h-107v152h107v503q0 57 -134 78v78h445q127 0 226.5 -35t167 -93t103 -135t35.5 -163v-729q0 -96 -28.5 -175t-86 -135.5t-144.5 -87t-201 -30.5h-517zM408 137q31 -6 59 -6q53 0 103.5 23.5t89 65.5t62 102.5t23.5 134.5v669 q0 78 -22.5 138.5t-60 101.5t-89 62.5t-108.5 21.5q-27 0 -57 -6v-520h159v-152h-159v-635z" />
<glyph unicode="&#xd1;" horiz-adv-x="1159" d="M23 0v78q135 20 135 61v1295q0 53 -135 77v72h270l581 -909v909h285v-72q-135 -25 -135 -77v-1514l-717 1108v-889q0 -41 129 -65v-74h-413zM184 1782q0 100 53.5 139t163.5 39q41 0 95.5 -18.5t108.5 -40t103.5 -40t79.5 -18.5q49 0 74 24.5t29 92.5h82q2 -16 2 -31.5 v-32.5q0 -104 -49.5 -143t-141.5 -39q-51 0 -111.5 18.5t-119 42t-107.5 42t-78 18.5q-51 0 -73.5 -27.5t-22.5 -91.5h-82q-6 39 -6 66z" />
<glyph unicode="&#xd2;" horiz-adv-x="1173" d="M68 358v869q0 90 36.5 160.5t104 118.5t163 74t214.5 26q240 0 380 -99.5t140 -279.5v-869q0 -180 -140.5 -279t-379.5 -99q-119 0 -214.5 25.5t-163 73.5t-104 118.5t-36.5 160.5zM213 1995h258l285 -353h-152zM322 436q0 -147 70.5 -239.5t193.5 -92.5q61 0 110 25 t84 69t53.5 104t18.5 134v713q0 74 -19.5 135.5t-54.5 104.5t-84 67.5t-108 24.5t-107.5 -24.5t-83.5 -67.5t-54 -104.5t-19 -135.5v-713z" />
<glyph unicode="&#xd3;" horiz-adv-x="1173" d="M68 358v869q0 90 36.5 160.5t104 118.5t163 74t214.5 26q240 0 380 -99.5t140 -279.5v-869q0 -180 -140.5 -279t-379.5 -99q-119 0 -214.5 25.5t-163 73.5t-104 118.5t-36.5 160.5zM322 436q0 -147 70.5 -239.5t193.5 -92.5q61 0 110 25t84 69t53.5 104t18.5 134v713 q0 74 -19.5 135.5t-54.5 104.5t-84 67.5t-108 24.5t-107.5 -24.5t-83.5 -67.5t-54 -104.5t-19 -135.5v-713zM418 1642l285 353h258l-391 -353h-152z" />
<glyph unicode="&#xd4;" horiz-adv-x="1173" d="M68 358v869q0 90 36.5 160.5t104 118.5t163 74t214.5 26q240 0 380 -99.5t140 -279.5v-869q0 -180 -140.5 -279t-379.5 -99q-119 0 -214.5 25.5t-163 73.5t-104 118.5t-36.5 160.5zM215 1642l262 353h217l262 -353h-137l-237 242l-232 -242h-135zM322 436 q0 -147 70.5 -239.5t193.5 -92.5q61 0 110 25t84 69t53.5 104t18.5 134v713q0 74 -19.5 135.5t-54.5 104.5t-84 67.5t-108 24.5t-107.5 -24.5t-83.5 -67.5t-54 -104.5t-19 -135.5v-713z" />
<glyph unicode="&#xd5;" horiz-adv-x="1173" d="M68 358v869q0 90 36.5 160.5t104 118.5t163 74t214.5 26q240 0 380 -99.5t140 -279.5v-869q0 -180 -140.5 -279t-379.5 -99q-119 0 -214.5 25.5t-163 73.5t-104 118.5t-36.5 160.5zM190 1782q0 100 53.5 139t163.5 39q41 0 95.5 -18.5t108.5 -40t103.5 -40t79.5 -18.5 q49 0 74 24.5t29 92.5h82q2 -16 2 -31.5v-32.5q0 -104 -49.5 -143t-141.5 -39q-51 0 -111.5 18.5t-119 42t-107.5 42t-78 18.5q-51 0 -73.5 -27.5t-22.5 -91.5h-82q-6 39 -6 66zM322 436q0 -147 70.5 -239.5t193.5 -92.5q61 0 110 25t84 69t53.5 104t18.5 134v713 q0 74 -19.5 135.5t-54.5 104.5t-84 67.5t-108 24.5t-107.5 -24.5t-83.5 -67.5t-54 -104.5t-19 -135.5v-713z" />
<glyph unicode="&#xd6;" horiz-adv-x="1173" d="M68 358v869q0 90 36.5 160.5t104 118.5t163 74t214.5 26q240 0 380 -99.5t140 -279.5v-869q0 -180 -140.5 -279t-379.5 -99q-119 0 -214.5 25.5t-163 73.5t-104 118.5t-36.5 160.5zM231 1817q0 55 33 101t88 46q59 0 92 -46t33 -101q0 -57 -33 -103.5t-92 -46.5 q-55 0 -88 46t-33 104zM322 436q0 -147 70.5 -239.5t193.5 -92.5q61 0 110 25t84 69t53.5 104t18.5 134v713q0 74 -19.5 135.5t-54.5 104.5t-84 67.5t-108 24.5t-107.5 -24.5t-83.5 -67.5t-54 -104.5t-19 -135.5v-713zM698 1817q0 55 31.5 101t87.5 46q59 0 92 -46t33 -101 q0 -57 -33 -103.5t-92 -46.5q-55 0 -87 46t-32 104z" />
<glyph unicode="&#xd7;" d="M129 508l256 256l-256 256l111 108l256 -254l254 252l108 -108l-256 -254l256 -254l-108 -111l-254 254l-256 -256z" />
<glyph unicode="&#xd8;" horiz-adv-x="1173" d="M68 358v869q0 90 36.5 160.5t104 118.5t163 74t214.5 26q172 0 288 -52l109 242h121l-131 -297q63 -47 98 -115.5t35 -156.5v-869q0 -180 -140.5 -279t-379.5 -99q-156 0 -273 40l-104 -231h-137l133 291q-66 49 -101.5 118.5t-35.5 159.5zM322 436q0 -43 6 -86l463 1020 q-35 53 -87.5 82t-117.5 29q-59 0 -107.5 -24.5t-83.5 -67.5t-54 -104.5t-19 -135.5v-713zM391 197q74 -92 195 -93q61 0 110 25t84 69t53.5 104t18.5 134v713q0 33 -6 70z" />
<glyph unicode="&#xd9;" horiz-adv-x="1234" d="M12 1509v74h516v-74q-131 -25 -131 -65v-995q0 -74 16.5 -137.5t50.5 -109.5t87 -72t127 -26q123 0 186.5 95.5t63.5 249.5v995q0 41 -127 65v74h426v-74q-135 -25 -135 -65v-1049q0 -94 -22.5 -171t-74 -131t-131.5 -83.5t-192 -29.5q-262 0 -395.5 111.5t-133.5 303.5 v1049q0 41 -131 65zM285 1995h258l285 -353h-152z" />
<glyph unicode="&#xda;" horiz-adv-x="1234" d="M12 1509v74h516v-74q-131 -25 -131 -65v-995q0 -74 16.5 -137.5t50.5 -109.5t87 -72t127 -26q123 0 186.5 95.5t63.5 249.5v995q0 41 -127 65v74h426v-74q-135 -25 -135 -65v-1049q0 -94 -22.5 -171t-74 -131t-131.5 -83.5t-192 -29.5q-262 0 -395.5 111.5t-133.5 303.5 v1049q0 41 -131 65zM489 1642l285 353h258l-391 -353h-152z" />
<glyph unicode="&#xdb;" horiz-adv-x="1234" d="M12 1509v74h516v-74q-131 -25 -131 -65v-995q0 -74 16.5 -137.5t50.5 -109.5t87 -72t127 -26q123 0 186.5 95.5t63.5 249.5v995q0 41 -127 65v74h426v-74q-135 -25 -135 -65v-1049q0 -94 -22.5 -171t-74 -131t-131.5 -83.5t-192 -29.5q-262 0 -395.5 111.5t-133.5 303.5 v1049q0 41 -131 65zM287 1642l262 353h217l262 -353h-137l-237 242l-232 -242h-135z" />
<glyph unicode="&#xdc;" horiz-adv-x="1234" d="M12 1509v74h516v-74q-131 -25 -131 -65v-995q0 -74 16.5 -137.5t50.5 -109.5t87 -72t127 -26q123 0 186.5 95.5t63.5 249.5v995q0 41 -127 65v74h426v-74q-135 -25 -135 -65v-1049q0 -94 -22.5 -171t-74 -131t-131.5 -83.5t-192 -29.5q-262 0 -395.5 111.5t-133.5 303.5 v1049q0 41 -131 65zM303 1817q0 55 33 101t88 46q59 0 92 -46t33 -101q0 -57 -33 -103.5t-92 -46.5q-55 0 -88 46t-33 104zM770 1817q0 55 31.5 101t87.5 46q59 0 92 -46t33 -101q0 -57 -33 -103.5t-92 -46.5q-55 0 -87 46t-32 104z" />
<glyph unicode="&#xdd;" horiz-adv-x="1232" d="M6 1509v74h516v-74q-129 -25 -129 -65v-402q0 -147 65.5 -218.5t213.5 -71.5q252 0 252 290v402q0 41 -129 65v74h426v-74q-135 -25 -136 -65v-436q0 -346 -297 -377v-492q0 -41 130 -65v-74h-519v78q135 20 136 61v492q-186 16 -290 114.5t-104 262.5v436q0 41 -135 65z M487 1642l285 353h258l-391 -353h-152z" />
<glyph unicode="&#xde;" horiz-adv-x="1019" d="M12 0v78q135 20 135 61v1305q0 41 -135 61v78h533v-74q-78 -16 -111 -29.5t-33 -35.5v-232q135 0 244 -26.5t184.5 -80.5t116.5 -137t41 -198t-41 -198t-116.5 -137t-184 -80.5t-244.5 -26.5v-189q0 -20 33 -34.5t111 -30.5v-74h-533zM401 453q168 0 251 76.5t83 240.5 t-83 240.5t-251 76.5v-634z" />
<glyph unicode="&#xdf;" horiz-adv-x="1198" d="M18 0v90q129 12 129 62v1030q0 106 34 185t97.5 132t152.5 80t198 27q111 0 197.5 -23.5t147 -76t92.5 -135.5t32 -200q0 -123 -55.5 -211t-153.5 -129q49 -16 96 -51t84 -83t59.5 -108t22.5 -128q0 -102 -34 -190.5t-101.5 -153t-170 -101t-237.5 -36.5q-33 0 -68.5 3 t-74.5 7v125q29 -4 54.5 -6.5t49.5 -2.5q92 0 154.5 25t101.5 68t56.5 102t17.5 129q0 166 -82 244t-209 78h-143v125h143q125 0 192.5 81.5t67.5 217.5q0 150 -56 227.5t-179 77.5t-177.5 -64.5t-54.5 -197.5v-1219h-383z" />
<glyph unicode="&#xe0;" horiz-adv-x="874" d="M41 250q0 117 67.5 171t215.5 71q61 6 104 11t72.5 11t47 12t27.5 15q-12 98 -77.5 144t-145.5 46h-92q-45 0 -70 -119h-73l-25 244h260q211 0 322.5 -86t111.5 -293v-307q0 -41 16.5 -54.5t41.5 -13.5q10 0 16 2v-108q-47 -16 -98 -16q-63 0 -97 23.5t-44 70.5 q-41 -49 -99.5 -71.5t-161.5 -22.5q-168 0 -243.5 66.5t-75.5 203.5zM65 1268h258l285 -353h-152zM266 217q0 -57 28 -89t81 -32q98 0 155.5 49.5t57.5 153.5v121q-18 -10 -56 -15.5t-73 -9.5q-115 -12 -154 -53t-39 -125z" />
<glyph unicode="&#xe1;" horiz-adv-x="874" d="M41 250q0 117 67.5 171t215.5 71q61 6 104 11t72.5 11t47 12t27.5 15q-12 98 -77.5 144t-145.5 46h-92q-45 0 -70 -119h-73l-25 244h260q211 0 322.5 -86t111.5 -293v-307q0 -41 16.5 -54.5t41.5 -13.5q10 0 16 2v-108q-47 -16 -98 -16q-63 0 -97 23.5t-44 70.5 q-41 -49 -99.5 -71.5t-161.5 -22.5q-168 0 -243.5 66.5t-75.5 203.5zM266 217q0 -57 28 -89t81 -32q98 0 155.5 49.5t57.5 153.5v121q-18 -10 -56 -15.5t-73 -9.5q-115 -12 -154 -53t-39 -125zM268 915l285 353h258l-391 -353h-152z" />
<glyph unicode="&#xe2;" horiz-adv-x="874" d="M41 250q0 117 67.5 171t215.5 71q61 6 104 11t72.5 11t47 12t27.5 15q-12 98 -77.5 144t-145.5 46h-92q-45 0 -70 -119h-73l-25 244h260q211 0 322.5 -86t111.5 -293v-307q0 -41 16.5 -54.5t41.5 -13.5q10 0 16 2v-108q-47 -16 -98 -16q-63 0 -97 23.5t-44 70.5 q-41 -49 -99.5 -71.5t-161.5 -22.5q-168 0 -243.5 66.5t-75.5 203.5zM70 915l262 353h217l262 -353h-137l-237 242l-232 -242h-135zM266 217q0 -57 28 -89t81 -32q98 0 155.5 49.5t57.5 153.5v121q-18 -10 -56 -15.5t-73 -9.5q-115 -12 -154 -53t-39 -125z" />
<glyph unicode="&#xe3;" horiz-adv-x="874" d="M41 250q0 117 67.5 171t215.5 71q61 6 104 11t72.5 11t47 12t27.5 15q-12 98 -77.5 144t-145.5 46h-92q-45 0 -70 -119h-73l-25 244h260q211 0 322.5 -86t111.5 -293v-307q0 -41 16.5 -54.5t41.5 -13.5q10 0 16 2v-108q-47 -16 -98 -16q-63 0 -97 23.5t-44 70.5 q-41 -49 -99.5 -71.5t-161.5 -22.5q-168 0 -243.5 66.5t-75.5 203.5zM45 1055q0 100 53.5 139t163.5 39q41 0 95.5 -18.5t108.5 -40t103.5 -40t79.5 -18.5q49 0 74 24.5t29 92.5h82q2 -16 2 -31.5v-32.5q0 -104 -49.5 -143t-141.5 -39q-51 0 -111.5 18.5t-119 42t-107.5 42 t-78 18.5q-51 0 -73.5 -27.5t-22.5 -91.5h-82q-6 39 -6 66zM266 217q0 -57 28 -89t81 -32q98 0 155.5 49.5t57.5 153.5v121q-18 -10 -56 -15.5t-73 -9.5q-115 -12 -154 -53t-39 -125z" />
<glyph unicode="&#xe4;" horiz-adv-x="874" d="M41 250q0 117 67.5 171t215.5 71q61 6 104 11t72.5 11t47 12t27.5 15q-12 98 -77.5 144t-145.5 46h-92q-45 0 -70 -119h-73l-25 244h260q211 0 322.5 -86t111.5 -293v-307q0 -41 16.5 -54.5t41.5 -13.5q10 0 16 2v-108q-47 -16 -98 -16q-63 0 -97 23.5t-44 70.5 q-41 -49 -99.5 -71.5t-161.5 -22.5q-168 0 -243.5 66.5t-75.5 203.5zM84 1090q0 55 33 101t88 46q59 0 92 -46t33 -101q0 -57 -33 -103.5t-92 -46.5q-55 0 -88 46t-33 104zM266 217q0 -57 28 -89t81 -32q98 0 155.5 49.5t57.5 153.5v121q-18 -10 -56 -15.5t-73 -9.5 q-115 -12 -154 -53t-39 -125zM551 1090q0 55 31.5 101t87.5 46q59 0 92 -46t33 -101q0 -57 -33 -103.5t-92 -46.5q-55 0 -87 46t-32 104z" />
<glyph unicode="&#xe5;" horiz-adv-x="874" d="M41 250q0 117 67.5 171t215.5 71q61 6 104 11t72.5 11t47 12t27.5 15q-12 98 -77.5 144t-145.5 46h-92q-45 0 -70 -119h-73l-25 244h260q211 0 322.5 -86t111.5 -293v-307q0 -41 16.5 -54.5t41.5 -13.5q10 0 16 2v-108q-47 -16 -98 -16q-63 0 -97 23.5t-44 70.5 q-41 -49 -99.5 -71.5t-161.5 -22.5q-168 0 -243.5 66.5t-75.5 203.5zM233 1077q0 82 51 136.5t150 54.5q100 0 152.5 -54.5t52.5 -136.5q0 -92 -57.5 -141t-147.5 -49q-88 0 -144.5 52t-56.5 138zM266 217q0 -57 28 -89t81 -32q98 0 155.5 49.5t57.5 153.5v121 q-18 -10 -56 -15.5t-73 -9.5q-115 -12 -154 -53t-39 -125zM360 1069q0 -72 24.5 -98.5t49.5 -26.5q31 0 54.5 26.5t23.5 98.5t-24 98.5t-54 26.5q-25 0 -49.5 -26.5t-24.5 -98.5z" />
<glyph unicode="&#xe6;" horiz-adv-x="1458" d="M41 250q0 117 67.5 171t215.5 71q61 6 103 11t68.5 11t42 12t25.5 15q-12 98 -71.5 144t-139.5 46h-92q-45 0 -70 -119h-73l-25 244h260q117 0 203 -23.5t141 -76.5q55 59 136 91t188 32q92 0 168 -30t130 -83t84 -130t30 -169h-613v-16q0 -164 75 -248t191 -84 q61 0 112.5 31.5t92.5 89.5l70 -50q-16 -41 -46 -78.5t-71 -67.5t-95 -47t-122 -17q-113 0 -199 41.5t-141 117.5q-70 -86 -145.5 -122.5t-180.5 -36.5q-168 0 -243.5 66.5t-75.5 203.5zM266 217q0 -57 28 -89t81 -32q98 0 149 49.5t51 153.5v121q-18 -10 -49.5 -15.5 t-66.5 -9.5q-115 -12 -154 -53t-39 -125zM834 596h352q-14 78 -60.5 118t-115.5 40q-66 0 -111 -40t-65 -118z" />
<glyph unicode="&#xe7;" horiz-adv-x="716" d="M35 418q0 227 113.5 332.5t326.5 105.5h223l-24 -330h-78q-20 205 -70 205h-51q-49 0 -90 -23.5t-69.5 -64.5t-44 -96t-15.5 -119q0 -170 59.5 -246t200.5 -76q29 0 67 5.5t83 15.5l8 -78q-57 -41 -130 -55t-136 -14q-176 0 -274.5 119.5t-98.5 318.5zM287 -186 q0 47 29.5 83.5t81.5 36.5q53 0 82.5 -42t29.5 -97q0 -31 -12 -66.5t-33.5 -69.5t-49.5 -63.5t-58 -48.5l-49 35q74 43 73 99q-94 25 -94 133z" />
<glyph unicode="&#xe8;" horiz-adv-x="894" d="M31 453q0 201 111.5 313.5t314.5 112.5q92 0 167.5 -30t130 -83t84 -130t29.5 -169h-612v-16q0 -164 76 -248t190 -84q61 0 112.5 31.5t92.5 89.5l70 -50q-16 -41 -45 -78.5t-71 -67.5t-96.5 -47t-121.5 -17q-100 0 -180 33.5t-136.5 96t-86 149.5t-29.5 194zM76 1268 h258l285 -353h-152zM270 596h355q-16 78 -62.5 118t-116.5 40q-63 0 -108 -40t-68 -118z" />
<glyph unicode="&#xe9;" horiz-adv-x="894" d="M31 453q0 201 111.5 313.5t314.5 112.5q92 0 167.5 -30t130 -83t84 -130t29.5 -169h-612v-16q0 -164 76 -248t190 -84q61 0 112.5 31.5t92.5 89.5l70 -50q-16 -41 -45 -78.5t-71 -67.5t-96.5 -47t-121.5 -17q-100 0 -180 33.5t-136.5 96t-86 149.5t-29.5 194zM270 596 h355q-16 78 -62.5 118t-116.5 40q-63 0 -108 -40t-68 -118zM278 915l285 353h258l-391 -353h-152z" />
<glyph unicode="&#xea;" horiz-adv-x="894" d="M31 453q0 201 111.5 313.5t314.5 112.5q92 0 167.5 -30t130 -83t84 -130t29.5 -169h-612v-16q0 -164 76 -248t190 -84q61 0 112.5 31.5t92.5 89.5l70 -50q-16 -41 -45 -78.5t-71 -67.5t-96.5 -47t-121.5 -17q-100 0 -180 33.5t-136.5 96t-86 149.5t-29.5 194zM80 915 l262 353h217l262 -353h-137l-237 242l-232 -242h-135zM270 596h355q-16 78 -62.5 118t-116.5 40q-63 0 -108 -40t-68 -118z" />
<glyph unicode="&#xeb;" horiz-adv-x="894" d="M31 453q0 201 111.5 313.5t314.5 112.5q92 0 167.5 -30t130 -83t84 -130t29.5 -169h-612v-16q0 -164 76 -248t190 -84q61 0 112.5 31.5t92.5 89.5l70 -50q-16 -41 -45 -78.5t-71 -67.5t-96.5 -47t-121.5 -17q-100 0 -180 33.5t-136.5 96t-86 149.5t-29.5 194zM92 1090 q0 55 33 101t88 46q59 0 92 -46t33 -101q0 -57 -33 -103.5t-92 -46.5q-55 0 -88 46t-33 104zM270 596h355q-16 78 -62.5 118t-116.5 40q-63 0 -108 -40t-68 -118zM559 1090q0 55 31.5 101t87.5 46q59 0 92 -46t33 -101q0 -57 -33 -103.5t-92 -46.5q-55 0 -87 46t-32 104z " />
<glyph unicode="&#xec;" horiz-adv-x="544" d="M-74 1268h258l285 -353h-152zM69 0v78q135 20 136 61v578q0 41 -131 65v74h317v-717q0 -41 127 -65v-74h-449z" />
<glyph unicode="&#xed;" horiz-adv-x="565" d="M20 0v78q135 20 136 61v578q0 41 -131 65v74h317v-717q0 -41 127 -65v-74h-449zM82 915l285 353h258l-391 -353h-152z" />
<glyph unicode="&#xee;" horiz-adv-x="651" d="M-45 915l262 353h217l262 -353h-137l-237 242l-232 -242h-135zM96 0v78q135 20 136 61v578q0 41 -131 65v74h317v-717q0 -41 127 -65v-74h-449z" />
<glyph unicode="&#xef;" horiz-adv-x="643" d="M-35 1090q0 55 33 101t88 46q59 0 92 -46t33 -101q0 -57 -33 -103.5t-92 -46.5q-55 0 -88 46t-33 104zM90 0v78q135 20 136 61v578q0 41 -131 65v74h317v-717q0 -41 127 -65v-74h-449zM432 1090q0 55 31.5 101t87.5 46q59 0 92 -46t33 -101q0 -57 -33 -103.5t-92 -46.5 q-55 0 -87 46t-32 104z" />
<glyph unicode="&#xf0;" horiz-adv-x="903" d="M37 428q0 451 401 451q70 0 128.5 -13.5t105.5 -36.5v332q0 47 -8.5 91t-24.5 85l-336 -231l-43 57l350 232q-37 59 -101.5 96t-156.5 37h-17t-18 -2v71q27 4 51.5 6.5t47.5 2.5q111 0 191.5 -34t137.5 -91l117 78l27 -52l-107 -71q43 -59 63.5 -128t22.5 -141v-739 q0 -223 -103 -335.5t-308 -112.5q-209 0 -314.5 112.5t-105.5 335.5zM258 428q0 -164 53.5 -243t145.5 -79t141 79t49 243q0 166 -57.5 246t-151.5 80q-88 0 -134 -80t-46 -246z" />
<glyph unicode="&#xf1;" horiz-adv-x="1087" d="M20 0v78q135 20 136 61v578q0 41 -131 65v74h303v-108q35 57 104.5 94t183.5 37q160 0 240 -82t80 -260v-398q0 -41 129 -65v-74h-457v78q135 20 135 61v375q0 129 -46 180t-146 51q-47 0 -84 -19t-64.5 -54t-42 -81t-14.5 -97v-355q0 -41 131 -65v-74h-457zM147 1055 q0 100 53.5 139t163.5 39q41 0 95.5 -18.5t108.5 -40t103.5 -40t79.5 -18.5q49 0 74 24.5t29 92.5h82q2 -16 2 -31.5v-32.5q0 -104 -49.5 -143t-141.5 -39q-51 0 -111.5 18.5t-119 42t-107.5 42t-78 18.5q-51 0 -73.5 -27.5t-22.5 -91.5h-82q-6 39 -6 66z" />
<glyph unicode="&#xf2;" horiz-adv-x="903" d="M37 428q0 451 401 451q213 0 321.5 -112t108.5 -339q0 -223 -103 -335.5t-308 -112.5q-209 0 -314.5 112.5t-105.5 335.5zM80 1268h258l285 -353h-152zM256 428q0 -164 54.5 -247t146.5 -83t142 83t50 247q0 166 -58.5 250t-152.5 84q-88 0 -135 -84t-47 -250z" />
<glyph unicode="&#xf3;" horiz-adv-x="903" d="M37 428q0 451 401 451q213 0 321.5 -112t108.5 -339q0 -223 -103 -335.5t-308 -112.5q-209 0 -314.5 112.5t-105.5 335.5zM256 428q0 -164 54.5 -247t146.5 -83t142 83t50 247q0 166 -58.5 250t-152.5 84q-88 0 -135 -84t-47 -250zM283 915l285 353h258l-391 -353h-152z " />
<glyph unicode="&#xf4;" horiz-adv-x="903" d="M37 428q0 451 401 451q213 0 321.5 -112t108.5 -339q0 -223 -103 -335.5t-308 -112.5q-209 0 -314.5 112.5t-105.5 335.5zM84 915l262 353h217l262 -353h-137l-237 242l-232 -242h-135zM256 428q0 -164 54.5 -247t146.5 -83t142 83t50 247q0 166 -58.5 250t-152.5 84 q-88 0 -135 -84t-47 -250z" />
<glyph unicode="&#xf5;" horiz-adv-x="903" d="M37 428q0 451 401 451q213 0 321.5 -112t108.5 -339q0 -223 -103 -335.5t-308 -112.5q-209 0 -314.5 112.5t-105.5 335.5zM59 1055q0 100 53.5 139t163.5 39q41 0 95.5 -18.5t108.5 -40t103.5 -40t79.5 -18.5q49 0 74 24.5t29 92.5h82q2 -16 2 -31.5v-32.5 q0 -104 -49.5 -143t-141.5 -39q-51 0 -111.5 18.5t-119 42t-107.5 42t-78 18.5q-51 0 -73.5 -27.5t-22.5 -91.5h-82q-6 39 -6 66zM256 428q0 -164 54.5 -247t146.5 -83t142 83t50 247q0 166 -58.5 250t-152.5 84q-88 0 -135 -84t-47 -250z" />
<glyph unicode="&#xf6;" horiz-adv-x="903" d="M37 428q0 451 401 451q213 0 321.5 -112t108.5 -339q0 -223 -103 -335.5t-308 -112.5q-209 0 -314.5 112.5t-105.5 335.5zM96 1090q0 55 33 101t88 46q59 0 92 -46t33 -101q0 -57 -33 -103.5t-92 -46.5q-55 0 -88 46t-33 104zM256 428q0 -164 54.5 -247t146.5 -83t142 83 t50 247q0 166 -58.5 250t-152.5 84q-88 0 -135 -84t-47 -250zM563 1090q0 55 31.5 101t87.5 46q59 0 92 -46t33 -101q0 -57 -33 -103.5t-92 -46.5q-55 0 -87 46t-32 104z" />
<glyph unicode="&#xf7;" d="M55 688v154h875v-154h-875zM356 268q0 61 36 112.5t97 51.5q66 0 101.5 -51.5t35.5 -112.5q0 -63 -35.5 -113t-101.5 -50q-61 0 -97 50t-36 113zM356 1286q0 61 36 112.5t97 51.5q66 0 101.5 -51.5t35.5 -112.5q0 -63 -35.5 -113t-101.5 -50q-61 0 -97 50t-36 113z" />
<glyph unicode="&#xf8;" horiz-adv-x="903" d="M37 -211l147 266q-147 106 -147 373q0 451 401 451q53 0 100.5 -8.5t88.5 -22.5l123 221h118l-145 -272q145 -109 145 -369q0 -223 -103 -335.5t-308 -112.5q-90 0 -168 22l-115 -213h-137zM258 428q0 -123 27 -190l268 475q-25 18 -54.5 29.5t-60.5 11.5q-88 0 -134 -80 t-46 -246zM362 133q39 -27 95 -27q92 0 141 79t49 243q0 55 -7 100t-19 80z" />
<glyph unicode="&#xf9;" horiz-adv-x="1036" d="M12 782v74h471v-74q-133 -23 -133 -65v-346q0 -74 9.5 -124t31 -82t59 -45.5t93.5 -13.5q102 0 152 58.5t50 206.5v348q0 41 -131 63v74h408v-74q-68 -10 -95.5 -26.5t-27.5 -38.5v-357q0 -207 -86 -293.5t-270 -86.5q-207 0 -308.5 86t-101.5 294v359q0 23 -27.5 38 t-93.5 25zM164 1268h258l285 -353h-152z" />
<glyph unicode="&#xfa;" horiz-adv-x="1036" d="M12 782v74h471v-74q-133 -23 -133 -65v-346q0 -74 9.5 -124t31 -82t59 -45.5t93.5 -13.5q102 0 152 58.5t50 206.5v348q0 41 -131 63v74h408v-74q-68 -10 -95.5 -26.5t-27.5 -38.5v-357q0 -207 -86 -293.5t-270 -86.5q-207 0 -308.5 86t-101.5 294v359q0 23 -27.5 38 t-93.5 25zM369 915l285 353h258l-391 -353h-152z" />
<glyph unicode="&#xfb;" horiz-adv-x="1036" d="M12 782v74h471v-74q-133 -23 -133 -65v-346q0 -74 9.5 -124t31 -82t59 -45.5t93.5 -13.5q102 0 152 58.5t50 206.5v348q0 41 -131 63v74h408v-74q-68 -10 -95.5 -26.5t-27.5 -38.5v-357q0 -207 -86 -293.5t-270 -86.5q-207 0 -308.5 86t-101.5 294v359q0 23 -27.5 38 t-93.5 25zM168 915l262 353h217l262 -353h-137l-237 242l-232 -242h-135z" />
<glyph unicode="&#xfc;" horiz-adv-x="1036" d="M12 782v74h471v-74q-133 -23 -133 -65v-346q0 -74 9.5 -124t31 -82t59 -45.5t93.5 -13.5q102 0 152 58.5t50 206.5v348q0 41 -131 63v74h408v-74q-68 -10 -95.5 -26.5t-27.5 -38.5v-357q0 -207 -86 -293.5t-270 -86.5q-207 0 -308.5 86t-101.5 294v359q0 23 -27.5 38 t-93.5 25zM182 1090q0 55 33 101t88 46q59 0 92 -46t33 -101q0 -57 -33 -103.5t-92 -46.5q-55 0 -88 46t-33 104zM649 1090q0 55 31.5 101t87.5 46q59 0 92 -46t33 -101q0 -57 -33 -103.5t-92 -46.5q-55 0 -87 46t-32 104z" />
<glyph unicode="&#xfd;" horiz-adv-x="1034" d="M10 782v74h463v-74q-123 -29 -123 -53q0 -4 2 -6l207 -422l195 428q0 35 -117 53v74h387v-74q-59 -10 -85 -26.5t-36 -40.5l-364 -776q-33 -70 -76 -131.5t-97.5 -106.5t-118 -70.5t-134.5 -25.5q-35 0 -76 10l12 98q4 -2 10.5 -4t10.5 -2q90 0 159.5 65.5t147.5 225.5 l53 113l-299 604q-8 16 -33.5 33.5t-87.5 33.5zM389 915l285 353h258l-391 -353h-152z" />
<glyph unicode="&#xfe;" horiz-adv-x="956" d="M18 -322q131 25 132 66v1700q0 41 -132 65v74h326v-758q39 25 85 39.5t118 14.5q168 0 271.5 -114t103.5 -351q0 -104 -29 -185.5t-80 -136.5t-124 -83.5t-161 -28.5q-90 0 -184 20v-256q0 -41 131 -66v-73h-457v73zM344 129q72 -16 117 -16q100 0 169.5 77.5t69.5 237.5 q0 80 -19 139.5t-52 98.5t-76 57t-90 18q-35 0 -63.5 -7t-55.5 -23v-582z" />
<glyph unicode="&#xff;" horiz-adv-x="1034" d="M10 782v74h463v-74q-123 -29 -123 -53q0 -4 2 -6l207 -422l195 428q0 35 -117 53v74h387v-74q-59 -10 -85 -26.5t-36 -40.5l-364 -776q-33 -70 -76 -131.5t-97.5 -106.5t-118 -70.5t-134.5 -25.5q-35 0 -76 10l12 98q4 -2 10.5 -4t10.5 -2q90 0 159.5 65.5t147.5 225.5 l53 113l-299 604q-8 16 -33.5 33.5t-87.5 33.5zM192 1090q0 55 33 101t88 46q59 0 92 -46t33 -101q0 -57 -33 -103.5t-92 -46.5q-55 0 -88 46t-33 104zM659 1090q0 55 31.5 101t87.5 46q59 0 92 -46t33 -101q0 -57 -33 -103.5t-92 -46.5q-55 0 -87 46t-32 104z" />
<glyph unicode="&#x152;" horiz-adv-x="1710" d="M78 379v827q0 186 136 281.5t380 95.5q57 0 113 -6l-5 6h914l-25 -330h-78q-25 207 -69 207h-357l570 -731h-545v-604h348q43 0 70 205h76l24 -330h-905v8q-29 -4 -61.5 -6t-69.5 -2q-244 0 -380 96.5t-136 282.5zM330 457q0 -147 68.5 -239.5t195.5 -92.5 q63 0 112.5 24.5t83 68.5t51 104.5t17.5 134.5v669q0 74 -18.5 134.5t-52 105.5t-83 69.5t-110.5 24.5q-59 0 -108.5 -24.5t-84 -69.5t-53 -105.5t-18.5 -134.5v-669zM1112 854h156l-156 199v-199z" />
<glyph unicode="&#x153;" horiz-adv-x="1515" d="M37 428q0 451 401 451q213 0 324 -117q113 117 317 117q92 0 168 -30t130.5 -83t84 -130t29.5 -169h-612v-16q0 -164 74.5 -248t191.5 -84q61 0 112.5 31.5t92.5 89.5l69 -50q-16 -41 -46 -78.5t-70.5 -67.5t-95 -47t-122.5 -17q-199 0 -311 124q-104 -125 -317 -124 q-209 0 -314.5 112.5t-105.5 335.5zM258 428q0 -164 53.5 -243t145.5 -79t141 79t49 243q0 166 -57.5 246t-151.5 80q-88 0 -134 -80t-46 -246zM893 596h352q-14 78 -60 118t-116 40q-66 0 -111 -40t-65 -118z" />
<glyph unicode="&#x178;" horiz-adv-x="1232" d="M6 1509v74h516v-74q-129 -25 -129 -65v-402q0 -147 65.5 -218.5t213.5 -71.5q252 0 252 290v402q0 41 -129 65v74h426v-74q-135 -25 -136 -65v-436q0 -346 -297 -377v-492q0 -41 130 -65v-74h-519v78q135 20 136 61v492q-186 16 -290 114.5t-104 262.5v436q0 41 -135 65z M293 1817q0 55 33 101t88 46q59 0 92 -46t33 -101q0 -57 -33 -103.5t-92 -46.5q-55 0 -88 46t-33 104zM760 1817q0 55 31.5 101t87.5 46q59 0 92 -46t33 -101q0 -57 -33 -103.5t-92 -46.5q-55 0 -87 46t-32 104z" />
<glyph unicode="&#x2c6;" horiz-adv-x="899" d="M88 915l262 353h217l262 -353h-137l-237 242l-232 -242h-135z" />
<glyph unicode="&#x2dc;" horiz-adv-x="948" d="M88 1055q0 100 53.5 139t163.5 39q41 0 95.5 -18.5t108.5 -40t103.5 -40t79.5 -18.5q49 0 74 24.5t29 92.5h82q2 -16 2 -31.5v-32.5q0 -104 -49.5 -143t-141.5 -39q-51 0 -111.5 18.5t-119 42t-107.5 42t-78 18.5q-51 0 -73.5 -27.5t-22.5 -91.5h-82q-6 39 -6 66z" />
<glyph unicode="&#x2000;" horiz-adv-x="997" />
<glyph unicode="&#x2001;" horiz-adv-x="1995" />
<glyph unicode="&#x2002;" horiz-adv-x="997" />
<glyph unicode="&#x2003;" horiz-adv-x="1995" />
<glyph unicode="&#x2004;" horiz-adv-x="665" />
<glyph unicode="&#x2005;" horiz-adv-x="498" />
<glyph unicode="&#x2006;" horiz-adv-x="332" />
<glyph unicode="&#x2007;" horiz-adv-x="332" />
<glyph unicode="&#x2008;" horiz-adv-x="249" />
<glyph unicode="&#x2009;" horiz-adv-x="399" />
<glyph unicode="&#x200a;" horiz-adv-x="110" />
<glyph unicode="&#x2010;" horiz-adv-x="411" d="M37 709v176h340v-176h-340z" />
<glyph unicode="&#x2011;" horiz-adv-x="411" d="M37 709v176h340v-176h-340z" />
<glyph unicode="&#x2012;" horiz-adv-x="411" d="M37 709v176h340v-176h-340z" />
<glyph unicode="&#x2013;" horiz-adv-x="878" d="M37 709v176h805v-176h-805z" />
<glyph unicode="&#x2014;" horiz-adv-x="1470" d="M37 709v176h1397v-176h-1397z" />
<glyph unicode="&#x2018;" horiz-adv-x="370" d="M49 1417q0 74 36 131.5t101 57.5q61 0 98.5 -50.5t37.5 -113.5q0 -143 -115 -178q0 -78 92 -136l-61 -45q-37 25 -72 64t-60.5 85t-41 94t-15.5 91z" />
<glyph unicode="&#x2019;" horiz-adv-x="370" d="M49 1442q0 63 37 113.5t98 50.5q66 0 102 -57.5t36 -131.5q0 -43 -15.5 -91t-41 -94t-60.5 -85t-72 -64l-61 45q92 57 92 136q-115 33 -115 178z" />
<glyph unicode="&#x201a;" horiz-adv-x="370" d="M49 143q0 61 37 112.5t98 51.5q66 0 102 -57t36 -131q0 -43 -15.5 -91t-41 -94.5t-60.5 -85t-72 -63.5l-61 45q92 57 92 133q-115 37 -115 180z" />
<glyph unicode="&#x201c;" horiz-adv-x="741" d="M49 1417q0 74 36 131.5t101 57.5q61 0 98.5 -50.5t37.5 -113.5q0 -143 -115 -178q0 -78 92 -136l-61 -45q-37 25 -72 64t-60.5 85t-41 94t-15.5 91zM420 1417q0 74 36 131.5t101 57.5q61 0 98.5 -50.5t37.5 -113.5q0 -143 -115 -178q0 -78 92 -136l-61 -45q-37 25 -72 64 t-60.5 85t-41 94t-15.5 91z" />
<glyph unicode="&#x201d;" horiz-adv-x="741" d="M49 1442q0 63 37 113.5t98 50.5q66 0 102 -57.5t36 -131.5q0 -43 -15.5 -91t-41 -94t-60.5 -85t-72 -64l-61 45q92 57 92 136q-115 33 -115 178zM420 1442q0 63 37 113.5t98 50.5q66 0 102 -57.5t36 -131.5q0 -43 -15.5 -91t-41 -94t-60.5 -85t-72 -64l-61 45 q92 57 92 136q-115 33 -115 178z" />
<glyph unicode="&#x201e;" horiz-adv-x="741" d="M49 143q0 61 37 112.5t98 51.5q66 0 102 -57t36 -131q0 -43 -15.5 -91t-41 -94.5t-60.5 -85t-72 -63.5l-61 45q92 57 92 133q-115 37 -115 180zM420 143q0 61 37 112.5t98 51.5q66 0 102 -57t36 -131q0 -43 -15.5 -91t-41 -94.5t-60.5 -85t-72 -63.5l-61 45q92 57 92 133 q-115 37 -115 180z" />
<glyph unicode="&#x2022;" horiz-adv-x="735" d="M113 813q0 57 17 112.5t50 98.5t80 69.5t107 26.5q59 0 107 -26.5t82 -69.5t51.5 -98.5t17.5 -112.5q0 -61 -17.5 -118.5t-51.5 -100.5t-82 -69.5t-107 -26.5t-106.5 26.5t-80.5 69.5t-50 100.5t-17 118.5z" />
<glyph unicode="&#x2026;" horiz-adv-x="1755" d="M131 143q0 61 36 112.5t97 51.5q66 0 101.5 -51.5t35.5 -112.5q0 -63 -35.5 -113t-101.5 -50q-61 0 -97 50t-36 113zM741 143q0 61 36 112.5t97 51.5q66 0 101.5 -51.5t35.5 -112.5q0 -63 -35.5 -113t-101.5 -50q-61 0 -97 50t-36 113zM1352 143q0 61 36 112.5t97 51.5 q66 0 101.5 -51.5t35.5 -112.5q0 -63 -35.5 -113t-101.5 -50q-61 0 -97 50t-36 113z" />
<glyph unicode="&#x202f;" horiz-adv-x="399" />
<glyph unicode="&#x2039;" horiz-adv-x="442" d="M31 668v188l377 254v-197l-248 -145l248 -152v-190z" />
<glyph unicode="&#x203a;" horiz-adv-x="442" d="M31 426v190l248 152l-248 145v197l377 -254v-188z" />
<glyph unicode="&#x205f;" horiz-adv-x="498" />
<glyph unicode="&#x20ac;" horiz-adv-x="1034" d="M29 578l43 133h110v174h-153l43 133h110v209q0 90 37 160.5t104.5 118.5t163 74t213.5 26q166 0 283 -50l-59 -217l-21 35q-76 106 -203 107q-59 0 -108 -24.5t-84 -67.5t-53.5 -104.5t-18.5 -135.5v-131h408l-37 -133h-371v-174h326l-37 -133h-289v-121 q0 -74 18.5 -137.5t52.5 -111.5t83 -76t110 -28q74 0 134.5 35t89.5 113l90 -213q-125 -59 -314 -59q-119 0 -214 28.5t-162.5 80.5t-104.5 126t-37 164v199h-153z" />
<glyph unicode="&#x2122;" horiz-adv-x="1718" d="M63 1583h631l-16 -217h-49q-14 135 -47 135h-119v-594q0 -25 84 -43v-47h-340v49q90 18 90 41v594h-119q-35 0 -47 -135h-53zM770 817v49q88 18 88 41v578q0 37 -88 51v47h238l198 -547l193 547h252v-47q-90 -16 -90 -51v-578q0 -23 90 -41v-49h-342v47q84 18 90 43v410 l-170 -500h-88l-185 477v-387q0 -25 84 -43v-47h-270z" />
<glyph unicode="&#x25fc;" horiz-adv-x="860" d="M0 0v860h860v-860h-860z" />
</font>
</defs>
</svg>
